<?xml version="1.0" standalone="no"?>
<!DOCTYPE svg PUBLIC "-//W3C//DTD SVG 20010904//EN"
 "http://www.w3.org/TR/2001/REC-SVG-20010904/DTD/svg10.dtd">
<svg version="1.0" xmlns="http://www.w3.org/2000/svg"
 width="128.000000pt" height="128.000000pt" viewBox="0 0 128.000000 128.000000"
 preserveAspectRatio="xMidYMid meet">
<metadata>
Created by potrace 1.11, written by Peter Selinger 2001-2013
</metadata>
<g transform="translate(0.000000,128.000000) scale(0.100000,-0.100000)"
fill="#000000" stroke="none">
<path d="M55 940 c-16 -3 -31 -12 -33 -20 -2 -8 -1 -12 3 -8 4 4 30 -18 58
-49 29 -31 85 -89 124 -129 l73 -74 -51 -56 c-28 -31 -63 -70 -78 -87 -14 -16
-39 -44 -56 -62 -113 -123 -113 -122 5 -121 65 0 90 4 90 13 0 7 9 17 19 23
11 5 23 19 26 30 4 11 11 18 16 15 5 -4 9 -2 9 3 0 6 16 27 35 48 19 22 35 43
35 47 0 5 5 5 12 1 6 -4 9 -3 6 2 -3 5 11 29 32 53 l38 44 0 -131 c0 -72 3
-135 6 -140 3 -5 35 -9 70 -9 36 0 63 4 60 8 -2 4 0 11 6 14 7 4 7 11 2 18 -5
7 -7 21 -5 32 5 25 5 33 0 68 -2 15 0 30 5 33 5 3 4 11 -2 19 -7 8 -7 15 -1
19 5 3 7 15 4 26 -6 23 -10 22 80 24 37 1 67 -2 67 -7 0 -6 5 -6 13 -1 6 5 28
9 47 9 l35 0 5 -130 5 -130 200 0 c110 -1 206 -5 214 -9 10 -6 12 -5 7 2 -4 7
-2 12 3 12 7 0 11 24 11 60 0 69 23 61 -178 62 -115 1 -123 2 -119 19 3 11 1
19 -5 19 -5 0 -6 5 -3 10 4 6 12 7 18 4 8 -5 8 -3 0 7 -7 7 -13 23 -13 35 0
23 2 23 125 22 69 -1 128 1 131 5 6 5 8 53 5 111 -1 10 -23 13 -98 14 -181 0
-163 -5 -163 52 0 41 3 50 18 51 9 0 77 1 150 1 l132 1 0 64 c0 49 -3 63 -15
64 -8 0 -58 0 -110 0 -52 0 -144 0 -205 0 l-110 -1 0 -110 c0 -60 -3 -110 -7
-111 -67 -7 -229 -2 -242 8 -11 9 -12 12 -3 13 10 0 10 5 2 20 -6 11 -7 20 -2
20 5 0 9 7 9 15 0 8 -4 15 -9 15 -5 0 -4 9 2 19 6 12 6 22 1 26 -10 5 -7 36 3
54 12 19 -27 35 -81 33 -30 0 -57 -3 -59 -5 -3 -2 -5 -57 -6 -121 l-1 -116
-66 69 c-36 38 -87 92 -113 120 -26 28 -53 51 -60 52 -70 3 -97 3 -123 -1z"/>
</g>
</svg>
