<?xml version="1.0" encoding="UTF-8" standalone="no"?>
<!DOCTYPE svg PUBLIC "-//W3C//DTD SVG 1.1//EN" "http://www.w3.org/Graphics/SVG/1.1/DTD/svg11.dtd">
<svg id="illustration-container" viewBox="0 0 2625 1165" version="1.1" xmlns="http://www.w3.org/2000/svg" xmlns:xlink="http://www.w3.org/1999/xlink" xml:space="preserve" xmlns:serif="http://www.serif.com/" style="fill-rule:evenodd;clip-rule:evenodd;stroke-linecap:round;stroke-linejoin:round;stroke-miterlimit:1.5;height: 100%;max-height: calc(95vh - 8em);display: block;position:relative;margin: 0 auto;">
    <g id="Male-Hacker" serif:id="Male Hacker" class="">
        <g>
            <rect id="Neck" x="380.618" y="553.272" width="64.712" height="54.837" style="fill:#c5b8a8;stroke:#152d53;stroke-width:6px;"/>
            <path id="Arms" d="M316.825,698.39l0,8.253l192.298,0l0,-8.253c-2.804,-2.521 -16.469,-4.739 -36.486,-6.226l-119.326,0c-20.017,1.487 -33.682,3.705 -36.486,6.226Z" style="fill:#152d53;fill-opacity:0.195243;"/>
            <rect id="rLeg" x="354.502" y="808.524" width="117.992" height="14.479" style="fill:#152d53;fill-opacity:0.199949;"/>
            <path d="M472.494,871.078l0,101.88l-117.992,0l0,-101.88l0,-62.554l117.992,0l0,62.554Z" style="fill:#374761;stroke:#152d53;stroke-width:6px;"/>
            <path d="M413.664,973.941l-0.506,-102.863" style="fill:none;stroke:#152d53;stroke-width:6px;"/>
            <path id="Head" d="M444.6,581.217c0,-12.28 -9.97,-31.042 -22.25,-31.042l-21.356,0c-12.281,0 -22.251,18.762 -22.251,31.042c0,12.281 65.857,12.281 65.857,0Z" style="fill:#152d53;fill-opacity:0.2;"/>
            <path d="M353.447,487.746c5.961,-0.904 11.849,5.268 13.14,13.775c1.291,8.506 -2.501,16.147 -8.462,17.052c-5.961,0.905 -11.849,-5.267 -13.14,-13.774c-1.291,-8.507 2.501,-16.148 8.462,-17.053Z" style="fill:#c5b8a8;stroke:#152d53;stroke-width:6px;"/>
            <path d="M353.447,487.746c5.961,-0.904 11.849,5.268 13.14,13.775c1.291,8.506 -2.501,16.147 -8.462,17.052c-5.961,0.905 -11.849,-5.267 -13.14,-13.774c-1.291,-8.507 2.501,-16.148 8.462,-17.053Z" style="fill:#152d53;fill-opacity:0.2;"/>
            <path d="M470.883,487.746c-5.962,-0.904 -11.849,5.268 -13.14,13.775c-1.291,8.506 2.5,16.147 8.462,17.052c5.961,0.905 11.849,-5.267 13.14,-13.774c1.291,-8.507 -2.501,-16.148 -8.462,-17.053Z" style="fill:#c5b8a8;stroke:#152d53;stroke-width:6px;"/>
            <path d="M470.883,487.746c-5.962,-0.904 -11.849,5.268 -13.14,13.775c-1.291,8.506 2.5,16.147 8.462,17.052c5.961,0.905 11.849,-5.267 13.14,-13.774c1.291,-8.507 -2.501,-16.148 -8.462,-17.053Z" style="fill:#152d53;fill-opacity:0.2;"/>
            <path id="Head1" serif:id="Head" d="M467.407,459.305c0,-27.038 -21.951,-48.99 -48.99,-48.99l-10.886,0c-27.038,0 -48.99,21.952 -48.99,48.99l0,66.848c0,27.038 21.952,48.99 48.99,48.99l10.886,0c27.039,0 48.99,-21.952 48.99,-48.99l0,-66.848Z" style="fill:#c5b8a8;stroke:#152d53;stroke-width:6px;"/>
            <path d="M425.599,407.657c0,0 10.646,3.677 10.973,3.749c9.65,2.124 26.56,16.157 30.29,30.645c-7.433,12.025 -29.644,20.712 -54.621,20.712c-23.856,0 -46.057,-7.846 -54.318,-19.035c2.251,-10.15 20.429,-34.202 27.894,-40.921c0.232,-0.208 -0.304,8.402 -0.304,8.402c0,0 29.851,-10.999 42.13,-11l-2.044,7.448Z" style="fill:#152d53;"/>
            <path d="M448.015,591.447l0.109,0.042l0.298,0.114l0.298,0.117l0.157,0.061l0.008,0.004l0.036,0.014l0.242,0.096l0.17,0.067l0.028,0.012l0.058,0.023l0.213,0.086l0.156,0.063l0.047,0.019l0.081,0.033l0.188,0.077l0.137,0.056l0.067,0.028l0.103,0.042l0.165,0.069l0.118,0.049l0.085,0.035l0.126,0.053l0.143,0.061l0.097,0.041l0.103,0.043l0.15,0.064l0.121,0.052l0.077,0.033l0.117,0.051l0.176,0.075l0.099,0.044l0.057,0.024l0.13,0.057l0.204,0.089l0.078,0.035l0.036,0.016l0.135,0.06l0.239,0.106l0.057,0.025l0.016,0.007l0.116,0.053c0.394,0.177 0.787,0.357 1.178,0.539l0.089,0.041l0.281,0.132l0.111,0.052l0.02,0.01l0.071,0.033l0.236,0.113l0.114,0.054l0.038,0.018l0.093,0.045l0.204,0.098l0.104,0.051l0.054,0.026l0.118,0.057l0.176,0.087l0.09,0.044l0.07,0.034l0.142,0.07l0.152,0.075l0.073,0.037l0.083,0.041l0.169,0.084l0.128,0.065l0.056,0.028l0.092,0.046l0.199,0.101l0.106,0.054l0.038,0.019l0.094,0.048l0.236,0.121l0.084,0.044l0.019,0.01l0.08,0.041l0.289,0.15l0.069,0.036c0.557,0.292 1.111,0.588 1.661,0.89l0.048,0.026l0.011,0.006l0.084,0.046l0.262,0.146l0.069,0.038l0.025,0.013l0.109,0.061l0.222,0.125l0.068,0.038l0.038,0.021l0.135,0.076l0.191,0.108l0.059,0.034l0.049,0.028l0.162,0.092l0.164,0.094l0.047,0.027l0.056,0.033l0.193,0.111l0.138,0.08l0.033,0.019l0.058,0.034l0.229,0.134l0.115,0.067l0.017,0.011l0.047,0.027l0.278,0.165l0.098,0.058c0.825,0.492 1.642,0.995 2.452,1.511l0.156,0.099l0.243,0.156l0.029,0.019l0.018,0.012l0.155,0.099l0.207,0.135l0.027,0.018l0.024,0.015l0.186,0.121l0.176,0.117l0.019,0.012l0.025,0.016l0.221,0.146l0.174,0.116c22.253,14.819 38.026,38.612 42.133,66.193l0,29.379l-36.647,0l0,111.726l-117.956,0l0,-111.726l-37.695,0l0,-16.413c0.429,-30.781 15.272,-58.104 38.078,-75.517l0,0l0,0c0.637,-0.487 1.28,-0.965 1.93,-1.436l0.01,-0.007l0.005,-0.004l0.165,-0.12l0.204,-0.146l0.018,-0.013l0.021,-0.015l0.226,-0.162l0.145,-0.103l0.002,-0.001l0.006,-0.004c0.514,-0.365 1.032,-0.725 1.554,-1.08l0.03,-0.021l0.013,-0.009l0.144,-0.098l0.206,-0.139l0.038,-0.025l0.036,-0.025l0.199,-0.134l0.148,-0.098l0.019,-0.013l0.042,-0.028c0.507,-0.336 1.017,-0.669 1.53,-0.996l0.052,-0.033l0.018,-0.012l0.126,-0.08l0.207,-0.131l0.058,-0.037l0.048,-0.03l0.176,-0.111l0.15,-0.093l0.037,-0.023l0.068,-0.042l0.236,-0.147l0.101,-0.062l0.007,-0.005l0.041,-0.024c0.374,-0.231 0.751,-0.459 1.129,-0.685l0.075,-0.045l0.022,-0.013l0.109,-0.065l0.207,-0.122l0.08,-0.047l0.056,-0.033l0.155,-0.091l0.152,-0.089l0.056,-0.033l0.085,-0.049l0.207,-0.12l0.104,-0.06l0.024,-0.014l0.094,-0.053c0.356,-0.205 0.713,-0.407 1.072,-0.607l0.103,-0.057l0.023,-0.013l0.093,-0.052l0.207,-0.114l0.103,-0.057l0.06,-0.033l0.137,-0.075l0.154,-0.083l0.076,-0.041l0.096,-0.053l0.184,-0.099l0.107,-0.057l0.041,-0.022l0.125,-0.067l0.238,-0.127l0.063,-0.033l0.003,-0.002l0.058,-0.031l0.39,-0.205l0.279,-0.144l0.136,-0.071l0.022,-0.011l0.078,-0.041l0.205,-0.105l0.129,-0.066l0.062,-0.032l0.121,-0.061l0.156,-0.079l0.095,-0.048l0.104,-0.052l0.164,-0.083l0.11,-0.054l0.058,-0.029l0.143,-0.071l0.209,-0.104l0.067,-0.032l0.018,-0.009l0.172,-0.084l0.265,-0.13l0.257,-0.124l0.184,-0.088l0.019,-0.009l0.064,-0.031l0.202,-0.096l0.156,-0.074l0.062,-0.029l0.106,-0.05l0.157,-0.074l0.117,-0.054l0.107,-0.05l0.146,-0.068l0.115,-0.053l0.075,-0.035l0.153,-0.07l0.187,-0.085l0.071,-0.032l0.033,-0.016l0.21,-0.094l0.216,-0.098l0.193,-0.086l0.273,-0.121l0.016,-0.007l0.051,-0.023l0.195,-0.085l0.186,-0.082l0.061,-0.026l0.092,-0.04l0.159,-0.068l0.138,-0.06l0.107,-0.046l0.132,-0.057l0.118,-0.05l0.093,-0.039l0.158,-0.067l0.169,-0.071l0.076,-0.032l0.048,-0.02l0.225,-0.093l0.19,-0.079l0.033,-0.014c0.157,-0.064 0.313,-0.128 0.47,-0.192l0.038,-0.015l0.097,-0.04c0,0 13.083,14.024 35.291,13.644c24.274,-0.416 35.369,-14.283 35.369,-14.283l-0.054,-0.021l-0.04,-0.015l0.094,0.036Z" style="fill:#bf3d3d;stroke:#152d53;stroke-width:6px;"/>
            <g>
                <g>
                    <path d="M374.636,475.101l24.108,-2" style="fill:none;stroke:#152d53;stroke-width:9px;"/>
                    <path d="M424.598,477.101l23.871,-2" style="fill:none;stroke:#152d53;stroke-width:9px;"/>
                </g>
                <path d="M408.818,518.661c2.807,-1.194 5.576,-1.13 8.312,0" style="fill:none;stroke:#152d53;stroke-width:6px;"/>
                <g>
                    <path d="M388.084,494.28c1.884,0 3.414,1.53 3.414,3.415c0,1.885 -1.53,2.536 -3.414,2.536c-1.885,0 -3.415,-0.651 -3.415,-2.536c0,-1.885 1.53,-3.415 3.415,-3.415Z" style="fill:#152d53;stroke:#152d53;stroke-width:9px;"/>
                    <path d="M433.655,494.28c1.885,0 3.415,1.53 3.415,3.415c0,1.885 -1.53,2.536 -3.415,2.536c-1.884,0 -3.414,-0.651 -3.414,-2.536c0,-1.885 1.53,-3.415 3.414,-3.415Z" style="fill:#152d53;stroke:#152d53;stroke-width:9px;"/>
                </g>
                <path d="M425.105,542.953l-24.262,0" style="fill:none;stroke:#152d53;stroke-width:6px;"/>
            </g>
            <path d="M356.684,660.36l0,36.459l-11.951,0l11.951,-36.459Z" style="fill:#152d53;fill-opacity:0.2;"/>
            <path d="M470.098,660.36l0,36.459l11.952,0l-11.952,-36.459Z" style="fill:#152d53;fill-opacity:0.2;"/>
            <rect id="rLeg1" serif:id="rLeg" x="354.502" y="867.612" width="117.992" height="105.346" style="fill:#152d53;fill-opacity:0.196078;"/>
            <g>
                <g>
                    <rect id="rLeg2" serif:id="rLeg" x="220.668" y="743.083" width="16.304" height="199.442" style="fill:#374761;stroke:#152d53;stroke-width:6px;"/>
                    <rect id="rLeg3" serif:id="rLeg" x="584.541" y="743.083" width="16.304" height="199.442" style="fill:#374761;stroke:#152d53;stroke-width:6px;"/>
                    <path id="rLeg4" serif:id="rLeg" d="M208.347,783.309l0,54.272l404.819,0l0,-54.272l-404.819,0Z" style="fill:#a38f75;stroke:#152d53;stroke-width:6px;"/>
                    <path id="rLeg5" serif:id="rLeg" d="M208.347,783.309l0,54.272l404.819,0l0,-54.272l-404.819,0Z" style="fill:#152d53;fill-opacity:0.2;"/>
                    <rect id="rLeg6" serif:id="rLeg" x="192.043" y="769.018" width="16.304" height="236.037" style="fill:#374761;stroke:#152d53;stroke-width:6px;"/>
                    <rect id="rLeg7" serif:id="rLeg" x="613.166" y="769.018" width="16.304" height="236.037" style="fill:#374761;stroke:#152d53;stroke-width:6px;"/>
                    <path id="rLeg8" serif:id="rLeg" d="M164.16,783.309l0,20.083l498.318,0l0,-20.083l-498.318,0Z" style="fill:#a38f75;stroke:#152d53;stroke-width:6px;"/>
                    <path d="M662.478,783.309l-498.318,0l56.353,-40.226l385.613,0l56.352,40.226Z" style="fill:#a38f75;stroke:#152d53;stroke-width:6px;"/>
                </g>
                <path d="M220.668,743.083l385.458,0l56.352,40.226l0,20.083l-33.009,0l0,201.663l-16.303,0l0,-201.663c0,0 0,34.189 0,34.189l-12.321,0l0,104.945l-16.304,0l0,-104.945l-347.57,0l0,104.945l-16.303,0l0,-104.945l-12.321,0l0,167.474l-16.304,0l0,-201.663l-27.883,0l0,-20.083l56.353,-40.226l0.155,0Z" style="fill:#152d53;fill-opacity:0.2;"/>
            </g>
            <path d="M354.52,769.978c-22.592,-0.913 -37.029,-9.139 -37.695,-35.853l0,-37.306l37.695,0l0,73.159Z" style="fill:#c5b8a8;stroke:#152d53;stroke-width:6px;"/>
            <path d="M471.428,769.978c22.592,-0.913 37.029,-9.139 37.695,-35.853l0,-37.306l-37.695,0l0,73.159Z" style="fill:#c5b8a8;stroke:#152d53;stroke-width:6px;"/>
            <g>
                <path d="M485.045,764.411l-144.26,0l29.788,-17.262l84.684,0l29.788,17.262Z" style="fill:#fff;stroke:#152d53;stroke-width:6px;"/>
                <path d="M496.365,759.686c0,-2.607 -2.117,-4.724 -4.724,-4.724l-157.451,0c-2.608,0 -4.725,2.117 -4.725,4.724l0,9.45c0,2.607 2.117,4.724 4.725,4.724l157.451,0c2.607,0 4.724,-2.117 4.724,-4.724l0,-9.45Z" style="fill:#d0d5dd;stroke:#152d53;stroke-width:6px;"/>
                <path d="M485.045,675.676c0,-1.672 -1.358,-3.03 -3.03,-3.03l-138.199,0c-1.673,0 -3.031,1.358 -3.031,3.03l0,94.966c0,1.673 1.358,3.031 3.031,3.031l138.199,0c1.672,0 3.03,-1.358 3.03,-3.031l0,-94.966Z" style="fill:#d0d5dd;stroke:#152d53;stroke-width:6px;"/>
                <g>
                    <clipPath id="_clip2">
                        <rect id="path188" x="400.778" y="708.398" width="24.274" height="29.811"/>
                    </clipPath>
                    <g clip-path="url(#_clip2)">
                        <path d="M421.051,724.236c-0.034,-3.772 3.081,-5.583 3.222,-5.672c-1.753,-2.564 -4.481,-2.916 -5.454,-2.957c-2.321,-0.235 -4.53,1.366 -5.706,1.366c-1.177,0 -2.995,-1.332 -4.919,-1.295c-2.533,0.038 -4.864,1.471 -6.168,3.737c-2.629,4.56 -0.671,11.318 1.888,15.02c1.253,1.809 2.745,3.847 4.706,3.772c1.89,-0.075 2.604,-1.221 4.885,-1.221c2.281,0 2.924,1.221 4.921,1.186c2.031,-0.04 3.32,-1.849 4.564,-3.664c1.435,-2.101 2.029,-4.134 2.062,-4.241c-0.045,-0.018 -3.96,-1.52 -4.001,-6.031" style="fill:#152d53;fill-rule:nonzero;"/>
                    </g>
                    <path id="path190" d="M417.298,713.159c1.041,-1.26 1.743,-3.013 1.55,-4.76c-1.5,0.06 -3.314,0.999 -4.391,2.26c-0.964,1.114 -1.809,2.899 -1.58,4.61c1.672,0.13 3.38,-0.851 4.421,-2.11" style="fill:#152d53;fill-rule:nonzero;"/>
                </g>
            </g>
            <g>
                <path id="_-Curve-" serif:id="(Curve)" d="M504.67,974.924l-170.92,0" style="fill:#152d53;stroke:#152d53;stroke-width:6px;"/>
                <path id="_-Curve-1" serif:id="(Curve)" d="M296.056,974.924l22.106,0" style="fill:#152d53;stroke:#152d53;stroke-width:6px;"/>
            </g>
        </g>
    </g>
    <g id="Female-Hacker" serif:id="Female Hacker" class="">
        <g>
            <path d="M2266.37,634.799l-122.994,0c0,0 -35.454,-215.915 60.705,-215.915c107.923,0 62.289,215.915 62.289,215.915Z" style="fill:#a38f75;stroke:#152d53;stroke-width:6px;"/>
            <rect id="Neck1" serif:id="Neck" x="2175.45" y="559.49" width="61.043" height="70.525" style="fill:#c5b8a8;stroke:#152d53;stroke-width:6px;"/>
            <path id="Arms1" serif:id="Arms" d="M2115.28,696.379l0,7.786l181.394,0l0,-7.786c-2.644,-2.378 -15.535,-4.469 -34.417,-5.872l-112.56,0c-18.882,1.403 -31.772,3.494 -34.417,5.872Z" style="fill:#152d53;fill-opacity:0.195243;"/>
            <rect id="rLeg9" serif:id="rLeg" x="2150.82" y="800.268" width="111.301" height="13.658" style="fill:#152d53;fill-opacity:0.199949;"/>
            <path d="M2262.12,859.276l0,96.103l-111.301,0l0,-96.103l0,-59.008l111.301,0l0,59.008Z" style="fill:#374761;stroke:#152d53;stroke-width:6px;"/>
            <path d="M2206.62,956.306l-0.477,-97.03" style="fill:none;stroke:#152d53;stroke-width:6px;"/>
            <path id="Head2" serif:id="Head" d="M2235.81,585.851c0,-11.585 -9.405,-29.283 -20.989,-29.283l-20.145,0c-11.584,0 -20.989,17.698 -20.989,29.283c0,11.584 62.123,11.584 62.123,0Z" style="fill:#152d53;fill-opacity:0.2;"/>
            <path d="M2149.82,497.68c5.624,-0.854 11.178,4.968 12.395,12.993c1.218,8.025 -2.359,15.232 -7.982,16.086c-5.623,0.853 -11.177,-4.969 -12.395,-12.994c-1.217,-8.024 2.359,-15.232 7.982,-16.085Z" style="fill:#c5b8a8;stroke:#152d53;stroke-width:6px;"/>
            <path d="M2149.82,497.68c5.624,-0.854 11.178,4.968 12.395,12.993c1.218,8.025 -2.359,15.232 -7.982,16.086c-5.623,0.853 -11.177,-4.969 -12.395,-12.994c-1.217,-8.024 2.359,-15.232 7.982,-16.085Z" style="fill:#152d53;fill-opacity:0.2;"/>
            <path d="M2260.6,497.68c-5.623,-0.854 -11.177,4.968 -12.395,12.993c-1.217,8.025 2.359,15.232 7.982,16.086c5.624,0.853 11.178,-4.969 12.395,-12.994c1.218,-8.024 -2.359,-15.232 -7.982,-16.085Z" style="fill:#c5b8a8;stroke:#152d53;stroke-width:6px;"/>
            <path d="M2260.6,497.68c-5.623,-0.854 -11.177,4.968 -12.395,12.993c-1.217,8.025 2.359,15.232 7.982,16.086c5.624,0.853 11.178,-4.969 12.395,-12.994c1.218,-8.024 -2.359,-15.232 -7.982,-16.085Z" style="fill:#152d53;fill-opacity:0.2;"/>
            <path id="Head3" serif:id="Head" d="M2257.32,497.645c0,-28.339 -23.008,-51.346 -51.347,-51.346c-28.339,0 -51.346,23.007 -51.346,51.346l0,31.129c0,28.339 23.007,51.347 51.346,51.347c28.339,0 51.347,-23.008 51.347,-51.347l0,-31.129Z" style="fill:#c5b8a8;stroke:#152d53;stroke-width:6px;"/>
            <path d="M2239.03,595.5l0.103,0.04l0.281,0.108l0.281,0.11l0.148,0.058l0.008,0.003l0.034,0.013l0.228,0.091l0.16,0.064l0.027,0.01l0.055,0.022l0.201,0.081l0.146,0.059l0.045,0.019l0.076,0.03l0.178,0.073l0.129,0.053l0.063,0.026l0.097,0.04l0.156,0.065l0.111,0.046l0.08,0.034l0.119,0.05l0.135,0.057l0.092,0.039l0.096,0.041l0.142,0.06l0.114,0.049l0.073,0.031l0.111,0.048l0.165,0.071l0.094,0.041l0.054,0.023l0.122,0.054l0.192,0.084l0.074,0.033l0.034,0.014l0.127,0.057l0.226,0.1l0.054,0.024l0.015,0.007l0.109,0.049c0.372,0.168 0.743,0.337 1.112,0.509l0.084,0.039l0.265,0.125l0.104,0.048l0.02,0.01l0.066,0.031l0.222,0.106l0.108,0.051l0.036,0.017l0.088,0.043l0.192,0.093l0.098,0.047l0.052,0.025l0.11,0.054l0.167,0.081l0.085,0.042l0.065,0.032l0.134,0.066l0.144,0.071l0.069,0.035l0.078,0.038l0.159,0.08l0.121,0.061l0.053,0.026l0.087,0.044l0.187,0.095l0.1,0.051l0.036,0.018l0.089,0.046l0.222,0.114l0.08,0.041l0.018,0.009l0.076,0.039l0.272,0.142l0.065,0.034c0.526,0.275 1.048,0.555 1.567,0.839l0.046,0.025l0.009,0.005l0.08,0.044l0.247,0.137l0.065,0.036l0.023,0.013l0.103,0.057l0.21,0.118l0.064,0.036l0.036,0.02l0.127,0.071l0.18,0.102l0.056,0.032l0.046,0.027l0.153,0.086l0.154,0.089l0.045,0.026l0.053,0.03l0.182,0.105l0.13,0.076l0.032,0.018l0.054,0.032l0.216,0.126l0.108,0.064l0.017,0.01l0.044,0.026l0.262,0.155l0.092,0.055c0.779,0.464 1.55,0.938 2.313,1.425l0.147,0.093l0.23,0.148l0.028,0.018l0.016,0.01l0.146,0.095l0.196,0.127l0.025,0.016l0.022,0.015l0.176,0.114l0.166,0.11l0.018,0.012l0.023,0.015l0.21,0.138l0.163,0.108c20.991,13.979 35.87,36.424 39.744,62.441l0,27.713l-34.568,0l0,105.391l-111.268,0l0,-105.391l-35.558,0l0,-15.483c0.404,-29.035 14.406,-54.809 35.919,-71.235l0,0l0,0c0.601,-0.459 1.208,-0.91 1.82,-1.354l0.01,-0.007l0.005,-0.004l0.155,-0.113l0.193,-0.138l0.017,-0.012l0.02,-0.014l0.212,-0.153l0.137,-0.097l0.002,-0.001l0.006,-0.004c0.485,-0.344 0.974,-0.684 1.466,-1.019l0.028,-0.019l0.012,-0.008l0.137,-0.094l0.194,-0.13l0.035,-0.024l0.035,-0.023l0.187,-0.126l0.139,-0.093l0.019,-0.012l0.04,-0.027c0.478,-0.317 0.959,-0.631 1.443,-0.94l0.048,-0.031l0.018,-0.011l0.119,-0.076l0.195,-0.123l0.055,-0.035l0.045,-0.028l0.166,-0.105l0.141,-0.087l0.035,-0.023l0.064,-0.039l0.223,-0.139l0.095,-0.058l0.007,-0.005l0.038,-0.023c0.353,-0.217 0.708,-0.433 1.065,-0.645l0.071,-0.043l0.02,-0.012l0.103,-0.061l0.196,-0.116l0.075,-0.044l0.053,-0.031l0.146,-0.087l0.144,-0.083l0.053,-0.031l0.08,-0.046l0.195,-0.114l0.098,-0.056l0.023,-0.013l0.088,-0.051c0.336,-0.193 0.673,-0.383 1.012,-0.572l0.097,-0.054l0.021,-0.012l0.088,-0.049l0.195,-0.107l0.098,-0.054l0.057,-0.031l0.129,-0.071l0.145,-0.079l0.071,-0.039l0.091,-0.049l0.174,-0.094l0.101,-0.054l0.038,-0.02l0.118,-0.063l0.225,-0.12l0.059,-0.032l0.003,-0.001l0.055,-0.029l0.367,-0.193l0.263,-0.137l0.129,-0.067l0.021,-0.01l0.073,-0.039l0.194,-0.099l0.121,-0.062l0.059,-0.03l0.114,-0.058l0.147,-0.074l0.09,-0.046l0.098,-0.049l0.154,-0.077l0.104,-0.052l0.055,-0.027l0.135,-0.067l0.197,-0.098l0.063,-0.031l0.017,-0.008l0.162,-0.079l0.251,-0.123l0.242,-0.116l0.173,-0.084l0.019,-0.009l0.06,-0.029l0.19,-0.09l0.147,-0.07l0.059,-0.027l0.1,-0.048l0.148,-0.069l0.11,-0.051l0.101,-0.047l0.138,-0.065l0.108,-0.049l0.071,-0.033l0.145,-0.066l0.176,-0.081l0.067,-0.03l0.031,-0.014l0.198,-0.09l0.204,-0.092l0.182,-0.081l0.258,-0.115l0.015,-0.006l0.048,-0.021l0.184,-0.081l0.176,-0.077l0.057,-0.025l0.087,-0.038l0.149,-0.064l0.13,-0.056l0.102,-0.044l0.124,-0.053l0.111,-0.047l0.088,-0.037l0.149,-0.063l0.159,-0.067l0.072,-0.03l0.046,-0.02l0.212,-0.087l0.179,-0.075l0.031,-0.013c0.148,-0.061 0.295,-0.121 0.443,-0.181l0.036,-0.014l0.092,-0.037l33.289,31.735l33.364,-32.339l-0.051,-0.019l-0.037,-0.015l0.088,0.034Z" style="fill:#64ebff;stroke:#152d53;stroke-width:6px;"/>
            <g>
                <path d="M2202.05,526.019c2.647,1.127 5.259,1.067 7.841,0" style="fill:none;stroke:#152d53;stroke-width:6px;"/>
                <g>
                    <path d="M2182.49,503.843c1.778,0 3.221,1.444 3.221,3.221c0,1.778 -1.443,2.392 -3.221,2.392c-1.778,0 -3.221,-0.614 -3.221,-2.392c0,-1.777 1.443,-3.221 3.221,-3.221Z" style="fill:#152d53;stroke:#152d53;stroke-width:9px;"/>
                    <path d="M2225.48,503.843c1.778,0 3.221,1.444 3.221,3.221c0,1.778 -1.443,2.392 -3.221,2.392c-1.778,0 -3.221,-0.614 -3.221,-2.392c0,-1.777 1.443,-3.221 3.221,-3.221Z" style="fill:#152d53;stroke:#152d53;stroke-width:9px;"/>
                </g>
                <path d="M2217.42,549.756c0,0 -2.973,4.768 -11.443,4.768c-8.47,0 -11.443,-4.768 -11.443,-4.768" style="fill:none;stroke:#152d53;stroke-width:6px;"/>
            </g>
            <path d="M2152.88,660.506l0,34.392l-11.274,0l11.274,-34.392Z" style="fill:#152d53;fill-opacity:0.2;"/>
            <path d="M2259.86,660.506l0,34.392l11.274,0l-11.274,-34.392Z" style="fill:#152d53;fill-opacity:0.2;"/>
            <rect id="rLeg10" serif:id="rLeg" x="2150.82" y="856.007" width="111.301" height="99.373" style="fill:#152d53;fill-opacity:0.196078;"/>
            <g>
                <g id="Table1" serif:id="Table" class="">
                    <rect id="rLeg11" serif:id="rLeg" x="2019.33" y="725.448" width="16.304" height="199.442" style="fill:#374761;stroke:#152d53;stroke-width:6px;"/>
                    <rect id="rLeg12" serif:id="rLeg" x="2383.2" y="725.448" width="16.304" height="199.442" style="fill:#374761;stroke:#152d53;stroke-width:6px;"/>
                    <path id="rLeg13" serif:id="rLeg" d="M2007.01,765.674l0,54.273l404.819,0l0,-54.273l-404.819,0Z" style="fill:#a38f75;stroke:#152d53;stroke-width:6px;"/>
                    <path id="rLeg14" serif:id="rLeg" d="M2007.01,765.674l0,54.273l404.819,0l0,-54.273l-404.819,0Z" style="fill:#152d53;fill-opacity:0.2;"/>
                    <rect id="rLeg15" serif:id="rLeg" x="1990.71" y="751.383" width="16.304" height="236.037" style="fill:#374761;stroke:#152d53;stroke-width:6px;"/>
                    <rect id="rLeg16" serif:id="rLeg" x="2411.83" y="751.383" width="16.304" height="236.037" style="fill:#374761;stroke:#152d53;stroke-width:6px;"/>
                    <path id="rLeg17" serif:id="rLeg" d="M1962.82,765.674l0,20.083l498.319,0l0,-20.083l-498.319,0Z" style="fill:#a38f75;stroke:#152d53;stroke-width:6px;"/>
                    <path d="M2461.14,765.674l-498.319,0l56.353,-40.226l385.613,0l56.353,40.226Z" style="fill:#a38f75;stroke:#152d53;stroke-width:6px;"/>
                </g>
                <path d="M2019.33,725.448l385.458,0l56.353,40.226l0,20.083l-33.009,0l0,201.663l-16.304,0l0,-201.663c0,0 0,34.19 0,34.19l-12.321,0l0,104.944l-16.304,0l0,-104.944l-347.569,0l0,104.944l-16.304,0l0,-104.944l-12.321,0l0,167.473l-16.303,0l0,-201.663l-27.884,0l0,-20.083l56.353,-40.226l0.155,0Z" style="fill:#152d53;fill-opacity:0.2;"/>
            </g>
            <path d="M2150.83,763.908c-21.311,-0.861 -34.929,-8.62 -35.558,-33.82l0,-35.19l35.558,0l0,69.01Z" style="fill:#c5b8a8;stroke:#152d53;stroke-width:6px;"/>
            <path d="M2261.11,763.908c21.311,-0.861 34.929,-8.62 35.557,-33.82l0,-35.19l-35.557,0l0,69.01Z" style="fill:#c5b8a8;stroke:#152d53;stroke-width:6px;"/>
            <g>
                <path d="M2273.96,758.657l-136.081,0l28.1,-16.283l79.882,0l28.099,16.283Z" style="fill:#fff;stroke:#152d53;stroke-width:6px;"/>
                <path d="M2300.04,755.143c0,-2.033 -1.651,-3.684 -3.685,-3.684l-180.894,0c-2.033,0 -3.685,1.651 -3.685,3.684l0,7.37c0,2.033 1.652,3.685 3.685,3.685l180.894,0c2.034,0 3.685,-1.652 3.685,-3.685l0,-7.37Z" style="fill:#d0d5dd;stroke:#152d53;stroke-width:6px;"/>
                <path d="M2284.37,666.013c0,-1.71 -1.389,-3.098 -3.099,-3.098l-150.713,0c-1.71,0 -3.098,1.388 -3.098,3.098l0,97.092c0,1.71 1.388,3.098 3.098,3.098l150.713,0c1.71,0 3.099,-1.388 3.099,-3.098l0,-97.092Z" style="fill:#d0d5dd;stroke:#152d53;stroke-width:6px;"/>
            </g>
            <g>
                <path id="path3023" d="M2219.37,714.559c0,-8.076 -6.546,-14.622 -14.622,-14.622c-0.221,0 -0.44,0.005 -0.658,0.015l-2.991,8.221l2.606,0c1.549,0 2.384,1.193 1.854,2.65l-3.689,10.139l-3.098,0l3.959,-10.868l-2.329,0l-3.96,10.868l-3.098,0l4.655,-12.789l0,0l2.801,-7.697c-6.158,1.723 -10.675,7.375 -10.675,14.083c0,6.907 4.789,12.695 11.228,14.225l2.713,-7.457l0.003,0l4.787,-13.154l5.705,0c1.552,0 2.386,1.193 1.856,2.65l-3.242,8.906c-0.247,0.678 -1.039,1.233 -1.761,1.233l-4.112,0l-2.989,8.213c0.144,0.004 0.29,0.006 0.435,0.006c8.076,0 14.622,-6.546 14.622,-14.622" style="fill:#152d53;fill-rule:nonzero;"/>
                <path id="path3027" d="M2213.59,710.087l-2.329,0l-3.26,8.946l2.328,0l3.261,-8.946" style="fill:#152d53;fill-rule:nonzero;"/>
            </g>
            <path id="_-Curve-2" serif:id="(Curve)" d="M2117.66,956.306l161.227,0" style="fill:#152d53;stroke:#152d53;stroke-width:6px;"/>
            <path id="_-Curve-3" serif:id="(Curve)" d="M2314.45,956.306l-20.853,0" style="fill:#152d53;stroke:#152d53;stroke-width:6px;"/>
            <path d="M2153.41,458.775c-0.317,-8.283 5.134,-14.798 9.044,-20.573c17.836,-26.344 64.762,-27.397 85.511,-1.541c4.698,5.854 12.917,13.542 13.645,22.114c1.422,16.74 -107.558,16.796 -108.2,0Z" style="fill:#a38f75;stroke:#152d53;stroke-width:6px;"/>
            <path d="M2180.14,486.667l0.177,0.019l0.177,0.02l0.176,0.021l0.177,0.022l0.176,0.024l0.175,0.024l0.176,0.026l0.019,0.003l0.159,0.041l0.178,0.047l0.177,0.048l0.177,0.05l0.177,0.05l0.14,0.042l0.036,0.012l0.177,0.065l0.174,0.067l1.59,1.171l-1.267,1.515l-0.145,0.105l-0.14,0.105l-0.028,0.021l-0.112,0.074l-0.138,0.094l-0.138,0.094l-0.136,0.095l-0.135,0.095l-0.118,0.085l-0.015,0.009l-0.135,0.077l-0.134,0.078l-0.133,0.078l-0.131,0.079l-0.131,0.079l-0.129,0.08l-0.128,0.081l-0.089,0.056l-0.038,0.019l-0.13,0.061l-0.129,0.062l-0.128,0.062l-0.121,0.061l-0.005,0.002l-0.129,0.05l-0.129,0.05l-0.012,0.005l-0.118,0.037l-0.129,0.04l-0.027,0.009l-0.104,0.025l-0.131,0.033l-0.13,0.033l-0.129,0.034l-0.129,0.035l-0.129,0.036l-0.127,0.036l-0.128,0.038l-0.126,0.038l-0.119,0.037l-0.007,0.002l-0.127,0.035l-0.126,0.037l-0.126,0.037l-0.125,0.039l-0.124,0.039l-0.124,0.04l-0.124,0.041l-0.123,0.042l-0.122,0.042l-0.122,0.044l-0.121,0.044l-0.121,0.046l-0.043,0.017l-0.078,0.027l-0.121,0.045l-0.12,0.045l-0.12,0.046l-0.12,0.048l-0.119,0.048l-0.118,0.049l-0.119,0.05l-0.117,0.051l-0.117,0.052l-0.117,0.053l-0.116,0.054l-0.116,0.055l-0.115,0.056l-0.115,0.057l-0.115,0.059l-0.113,0.059l-0.114,0.06l-0.113,0.061l-0.113,0.063l-0.112,0.063l-0.111,0.064l-0.112,0.066l-0.111,0.067l-0.11,0.068l-0.11,0.068l-0.109,0.07l-0.109,0.072l-0.109,0.072l-0.108,0.073l-0.004,0.003l-0.105,0.071l-0.109,0.074l-0.108,0.075l-0.108,0.077l-0.108,0.078l-0.107,0.079l-0.107,0.081l-0.106,0.081l-0.106,0.083l-0.106,0.085l-0.105,0.085l-0.105,0.087l-0.104,0.088l-0.104,0.09l-0.104,0.091l-0.103,0.092l-0.103,0.093l-0.102,0.095l-0.102,0.097l-0.102,0.098l-0.101,0.099l-0.1,0.1l-0.101,0.102l-0.1,0.104l-0.099,0.105l-0.099,0.106l-0.099,0.108l-0.098,0.109l-0.098,0.111l-0.048,0.056l-0.05,0.056l-0.097,0.114l-0.098,0.115l-0.096,0.116l-0.097,0.118l-0.096,0.119l-0.095,0.122l-0.095,0.122l-0.095,0.125l-0.094,0.126l-0.094,0.127l-0.093,0.129l-0.092,0.131l-0.093,0.132l-0.091,0.135l-0.092,0.135l-0.09,0.138l-0.09,0.139l-0.09,0.141l-0.089,0.142l-0.089,0.144l-0.088,0.146l-0.048,0.082l-0.042,0.07l-1.797,0.656l-0.655,-1.798l0.03,-0.082l0.033,-0.094l0.067,-0.18l0.068,-0.178l0.069,-0.177l0.07,-0.176l0.071,-0.175l0.073,-0.174l0.073,-0.172l0.075,-0.171l0.076,-0.17l0.077,-0.168l0.078,-0.168l0.079,-0.166l0.08,-0.165l0.082,-0.163l0.083,-0.163l0.083,-0.161l0.085,-0.16l0.086,-0.159l0.088,-0.157l0.088,-0.157l0.089,-0.155l0.046,-0.078l0.045,-0.076l0.093,-0.152l0.094,-0.151l0.094,-0.15l0.096,-0.148l0.097,-0.147l0.098,-0.146l0.1,-0.145l0.1,-0.144l0.101,-0.142l0.103,-0.141l0.103,-0.14l0.105,-0.139l0.105,-0.138l0.107,-0.136l0.108,-0.135l0.109,-0.134l0.11,-0.132l0.111,-0.132l0.112,-0.13l0.113,-0.129l0.114,-0.128l0.115,-0.126l0.116,-0.125l0.117,-0.124l0.119,-0.123l0.119,-0.122l0.12,-0.12l0.121,-0.119l0.118,-0.114l0.004,-0.004l0.125,-0.115l0.125,-0.114l0.126,-0.112l0.128,-0.112l0.128,-0.11l0.129,-0.109l0.13,-0.107l0.131,-0.107l0.131,-0.105l0.133,-0.104l0.133,-0.102l0.135,-0.102l0.135,-0.1l0.136,-0.099l0.137,-0.098l0.137,-0.096l0.139,-0.095l0.139,-0.095l0.14,-0.092l0.141,-0.092l0.142,-0.091l0.142,-0.089l0.144,-0.088l0.144,-0.087l0.144,-0.085l0.146,-0.085l0.146,-0.083l0.147,-0.082l0.147,-0.081l0.095,-0.051l0.054,-0.028l0.15,-0.076l0.151,-0.074l0.152,-0.074l0.152,-0.072l0.153,-0.071l0.153,-0.07l0.154,-0.068l0.155,-0.068l0.155,-0.067l0.156,-0.065l0.156,-0.064l0.157,-0.063l0.009,-0.004l0.15,-0.054l0.159,-0.057l0.16,-0.056l0.161,-0.054l0.16,-0.054l0.162,-0.052l0.162,-0.051l0.162,-0.05l0.162,-0.049l0.13,-0.038l0.034,-0.008l0.166,-0.037l0.15,-0.033l0.017,-0.002l0.17,-0.024l0.169,-0.022l0.007,-0.001l0.166,-0.007l0.173,-0.007l0.173,-0.005l0.173,-0.004l0.052,0l0.124,0.012Z" style="fill:#625a4f;"/>
            <path d="M2229.7,486.655l0.173,0.004l0.173,0.005l0.173,0.007l0.166,0.007l0.007,0.001l0.17,0.022l0.169,0.024l0.017,0.002l0.15,0.033l0.166,0.037l0.035,0.008l0.129,0.038l0.162,0.049l0.163,0.05l0.161,0.051l0.162,0.052l0.16,0.054l0.161,0.054l0.16,0.056l0.159,0.057l0.15,0.054l0.009,0.004l0.157,0.063l0.156,0.064l0.156,0.065l0.155,0.067l0.155,0.068l0.154,0.068l0.153,0.07l0.153,0.071l0.152,0.072l0.152,0.074l0.151,0.074l0.15,0.076l0.054,0.028l0.095,0.051l0.147,0.081l0.147,0.082l0.146,0.083l0.146,0.085l0.145,0.085l0.144,0.087l0.143,0.088l0.142,0.089l0.142,0.091l0.141,0.092l0.14,0.092l0.139,0.095l0.139,0.095l0.137,0.096l0.137,0.098l0.136,0.099l0.135,0.1l0.135,0.102l0.133,0.102l0.133,0.104l0.131,0.105l0.131,0.107l0.13,0.107l0.129,0.109l0.128,0.11l0.128,0.112l0.126,0.112l0.125,0.114l0.125,0.115l0.004,0.004l0.118,0.114l0.121,0.119l0.12,0.12l0.12,0.122l0.118,0.123l0.117,0.124l0.116,0.125l0.115,0.126l0.114,0.128l0.113,0.129l0.112,0.13l0.111,0.132l0.11,0.132l0.109,0.134l0.108,0.135l0.107,0.136l0.105,0.138l0.105,0.139l0.104,0.14l0.102,0.141l0.101,0.142l0.101,0.144l0.099,0.145l0.098,0.146l0.097,0.147l0.096,0.148l0.094,0.15l0.094,0.151l0.093,0.152l0.045,0.076l0.046,0.078l0.089,0.155l0.088,0.157l0.088,0.157l0.086,0.159l0.085,0.16l0.084,0.161l0.082,0.163l0.082,0.163l0.08,0.165l0.079,0.166l0.078,0.168l0.077,0.168l0.076,0.17l0.075,0.171l0.074,0.172l0.072,0.174l0.071,0.175l0.07,0.176l0.069,0.177l0.068,0.178l0.067,0.18l0.034,0.094l0.029,0.082l-0.655,1.798l-1.797,-0.656l-0.042,-0.07l-0.048,-0.082l-0.088,-0.146l-0.089,-0.144l-0.089,-0.142l-0.09,-0.141l-0.09,-0.139l-0.09,-0.138l-0.092,-0.135l-0.091,-0.135l-0.092,-0.132l-0.093,-0.131l-0.093,-0.129l-0.094,-0.127l-0.094,-0.126l-0.095,-0.125l-0.095,-0.122l-0.095,-0.122l-0.096,-0.119l-0.096,-0.118l-0.097,-0.116l-0.098,-0.115l-0.097,-0.114l-0.05,-0.056l-0.048,-0.056l-0.098,-0.111l-0.098,-0.109l-0.099,-0.108l-0.099,-0.106l-0.099,-0.105l-0.1,-0.104l-0.1,-0.102l-0.101,-0.1l-0.101,-0.099l-0.102,-0.098l-0.102,-0.097l-0.102,-0.095l-0.103,-0.093l-0.103,-0.092l-0.104,-0.091l-0.104,-0.09l-0.104,-0.088l-0.105,-0.087l-0.105,-0.085l-0.106,-0.085l-0.106,-0.083l-0.106,-0.081l-0.107,-0.081l-0.107,-0.079l-0.107,-0.078l-0.108,-0.077l-0.109,-0.075l-0.108,-0.074l-0.106,-0.071l-0.004,-0.003l-0.108,-0.073l-0.108,-0.072l-0.109,-0.072l-0.11,-0.07l-0.11,-0.068l-0.11,-0.068l-0.111,-0.067l-0.111,-0.066l-0.112,-0.064l-0.112,-0.063l-0.113,-0.063l-0.113,-0.061l-0.113,-0.06l-0.114,-0.059l-0.115,-0.059l-0.115,-0.057l-0.115,-0.056l-0.116,-0.055l-0.116,-0.054l-0.117,-0.053l-0.117,-0.052l-0.117,-0.051l-0.118,-0.05l-0.119,-0.049l-0.119,-0.048l-0.12,-0.048l-0.12,-0.046l-0.12,-0.045l-0.121,-0.045l-0.078,-0.027l-0.043,-0.017l-0.121,-0.046l-0.121,-0.044l-0.122,-0.044l-0.122,-0.042l-0.123,-0.042l-0.124,-0.041l-0.124,-0.04l-0.124,-0.039l-0.125,-0.039l-0.126,-0.037l-0.126,-0.037l-0.127,-0.035l-0.007,-0.002l-0.119,-0.037l-0.126,-0.038l-0.127,-0.038l-0.128,-0.036l-0.129,-0.036l-0.129,-0.035l-0.129,-0.034l-0.13,-0.033l-0.131,-0.033l-0.104,-0.025l-0.027,-0.009l-0.129,-0.04l-0.118,-0.037l-0.012,-0.005l-0.128,-0.05l-0.129,-0.05l-0.005,-0.002l-0.122,-0.061l-0.128,-0.062l-0.129,-0.062l-0.129,-0.061l-0.039,-0.019l-0.089,-0.056l-0.128,-0.081l-0.129,-0.08l-0.13,-0.079l-0.132,-0.079l-0.133,-0.078l-0.134,-0.078l-0.135,-0.077l-0.014,-0.009l-0.119,-0.085l-0.135,-0.095l-0.136,-0.095l-0.138,-0.094l-0.138,-0.094l-0.112,-0.074l-0.028,-0.021l-0.14,-0.105l-0.145,-0.105l-1.267,-1.515l1.59,-1.171l0.174,-0.067l0.177,-0.065l0.036,-0.012l0.14,-0.042l0.177,-0.05l0.177,-0.05l0.177,-0.048l0.178,-0.047l0.159,-0.041l0.019,-0.003l0.176,-0.026l0.176,-0.024l0.176,-0.024l0.176,-0.022l0.176,-0.021l0.177,-0.02l0.177,-0.019l0.124,-0.012l0.052,0Z" style="fill:#625a4f;"/>
        </g>
    </g>
    <g id="Ground">
        <path d="M2046.58,987.42c0,-58.7 -47.657,-106.357 -106.357,-106.357l-1253.34,0c-58.7,0 -106.357,47.657 -106.357,106.357c0,58.7 47.657,106.357 106.357,106.357l1253.34,0c58.7,0 106.357,-47.657 106.357,-106.357Z" style="fill:#5f9aff;fill-opacity:0.0980392;"/>
        <path d="M735.737,979.715l1155.62,0" style="fill:#152d53;stroke:#152d53;stroke-width:6px;"/>
        <path d="M685.579,979.715l25.377,0" style="fill:#152d53;stroke:#152d53;stroke-width:6px;"/>
    </g>
    <g id="Projecter-Screen" serif:id="Projecter Screen" class="">
        <path d="M1736.75,164.687c0,-14.596 -11.85,-26.447 -26.446,-26.447l-780.792,0c-14.596,0 -26.446,11.851 -26.446,26.447l0,476.031c0,14.596 11.85,26.447 26.446,26.447l780.792,0c14.596,0 26.446,-11.851 26.446,-26.447l0,-476.031Z" style="fill:#fff;stroke:#152d53;stroke-width:6px;"/>
        <path d="M1757.65,120.481c0,-9.802 -7.958,-17.76 -17.76,-17.76l-839.977,0c-9.801,0 -17.759,7.958 -17.759,17.76l0,35.519c0,9.802 7.958,17.76 17.759,17.76l839.977,0c9.802,0 17.76,-7.958 17.76,-17.76l0,-35.519Z" style="fill:#d0d5dd;stroke:#152d53;stroke-width:6px;"/>
        <path d="M1757.65,162.09c0,-2.147 -1.743,-3.89 -3.89,-3.89l-867.716,0c-2.147,0 -3.89,1.743 -3.89,3.89l0,7.78c0,2.147 1.743,3.89 3.89,3.89l867.716,0c2.147,0 3.89,-1.743 3.89,-3.89l0,-7.78Z" style="fill:#152d53;fill-opacity:0.2;"/>
        <g>
            <path d="M1359.34,310.307l135.537,0l0,38.461l-94.173,0l0,35.259l82.305,0l0,38.461l-82.305,0l0,38.463l94.173,0l0,38.461l-135.537,0l0,-189.105Z" style="fill:#e8eaee;fill-rule:nonzero;"/>
            <path d="M1359.34,310.307l135.537,0l0,38.461l-94.173,0l0,35.259l82.305,0l0,38.461l-82.305,0l0,38.463l94.173,0l0,38.461l-135.537,0l0,-189.105Z" style="fill:#e8eaee;fill-rule:nonzero;"/>
            <path d="M1236.43,310.307l41.668,0l0,70.513l80.932,0l0,-70.513l41.668,0l0,189.106l-41.668,0l0,-81.733l-80.932,0l0,81.733l-41.668,0l0,-189.106Z" style="fill:#e8eaee;fill-rule:nonzero;"/>
            <path d="M1236.43,310.307l41.668,0l0,70.513l80.932,0l0,-70.513l41.668,0l0,189.106l-41.668,0l0,-81.733l-80.932,0l0,81.733l-41.668,0l0,-189.106Z" style="fill:#e8eaee;fill-rule:nonzero;"/>
            <path d="M1278.05,499.413l-41.666,0l0,-89.746l-76.925,89.746l-58.228,0l91.348,-101.231l-84.137,-87.875l54.488,0l73.454,78.526l0,-78.526l41.666,0l0,189.106Z" style="fill:#e8eaee;fill-rule:nonzero;"/>
            <path d="M1278.05,499.413l-41.666,0l0,-89.746l-76.925,89.746l-58.228,0l91.348,-101.231l-84.137,-87.875l54.488,0l73.454,78.526l0,-78.526l41.666,0l0,189.106Z" style="fill:#e8eaee;fill-rule:nonzero;"/>
        </g>
    </g>
    <g id="Spotlight" class="">
        <path d="M1893.43,997.893c-138.244,47.022 -281.492,46.596 -429.608,0l107.402,-997.878l214.804,0l107.402,997.878Z" style="fill:#ecd611;fill-opacity:0.2;"/>
        <ellipse cx="1683.08" cy="992.633" rx="210.353" ry="38.891" style="fill:#c2b30e;fill-opacity:0.2;"/>
    </g>
    <g>
        <g id="Recruiter" class="">
            <path d="M1749.82,490.98c10.178,-19.931 15.645,-43.762 15.645,-68.196c0,-65.062 -38.034,-117.884 -84.88,-117.884c-46.847,0 -84.88,52.822 -84.88,117.884c0,24.434 5.467,48.265 15.645,68.196l138.47,0Z" style="fill:#ecd611;stroke:#152d53;stroke-width:6px;"/>
            <rect id="Neck2" serif:id="Neck" x="1643.78" y="454.463" width="73.607" height="130.369" style="fill:#e1cab0;stroke:#152d53;stroke-width:6px;"/>
            <path id="Arms2" serif:id="Arms" d="M1577.28,713.987l0,-99.306l206.729,0l0,99.306c-3.189,30.336 -12.732,37.014 -35.501,54.905l-135.728,0c-22.768,-17.891 -32.312,-24.569 -35.5,-54.905Z" style="fill:#e1cab0;stroke:#152d53;stroke-width:6px;"/>
            <path id="lLeg" d="M1748.4,728.38l-134.21,0c0,0 -5.247,38.036 -5.247,43.813c0,41.506 13.247,205.227 13.247,205.227l118.21,0c0,0 12.73,-163.721 12.73,-205.227c0,-14.604 -4.73,-43.813 -4.73,-43.813Z" style="fill:#5f9aff;stroke:#152d53;stroke-width:6px;"/>
            <path d="M1683.27,977.42l0,-182.35" style="fill:none;stroke:#152d53;stroke-width:6px;"/>
            <path d="M1612.87,389.931c6.781,-1.029 13.478,5.991 14.947,15.667c1.468,9.676 -2.845,18.368 -9.626,19.397c-6.78,1.029 -13.477,-5.992 -14.946,-15.668c-1.468,-9.676 2.845,-18.368 9.625,-19.396Z" style="fill:#e1cab0;stroke:#152d53;stroke-width:6px;"/>
            <path d="M1746.45,389.931c-6.78,-1.029 -13.478,5.991 -14.946,15.667c-1.468,9.676 2.845,18.368 9.625,19.397c6.781,1.029 13.478,-5.992 14.946,-15.668c1.469,-9.676 -2.844,-18.368 -9.625,-19.396Z" style="fill:#e1cab0;stroke:#152d53;stroke-width:6px;"/>
            <g>
                <circle cx="1614.09" cy="429.615" r="5.14" style="fill:#fff;stroke:#152d53;stroke-width:6px;"/>
                <circle cx="1747.08" cy="429.615" r="5.14" style="fill:#fff;stroke:#152d53;stroke-width:6px;"/>
            </g>
            <path d="M1611.85,389.931c6.781,-1.029 13.478,5.991 14.947,15.667c1.468,9.676 -2.845,18.368 -9.626,19.397c-6.78,1.029 -13.477,-5.992 -14.946,-15.668c-1.468,-9.676 2.845,-18.368 9.625,-19.396Z" style="fill:#152d53;fill-opacity:0.2;"/>
            <path id="Head4" serif:id="Head" d="M1718.04,469.126c0,13.969 -7.043,23.425 -15.31,29.309c-4.591,3.269 -39.699,3.269 -44.291,0c-8.266,-5.884 -15.309,-15.34 -15.309,-29.309c0,-13.969 74.91,-13.969 74.91,0Z" style="fill:#152d53;fill-opacity:0.2;"/>
            <path d="M1745.43,389.931c-6.78,-1.029 -13.478,5.991 -14.946,15.667c-1.468,9.676 2.845,18.368 9.625,19.397c6.781,1.029 13.478,-5.992 14.946,-15.668c1.469,-9.676 -2.844,-18.368 -9.625,-19.396Z" style="fill:#152d53;fill-opacity:0.2;"/>
            <path id="Head5" serif:id="Head" d="M1742.5,384.992c0,-34.172 -27.743,-61.915 -61.915,-61.915c-34.172,0 -61.915,27.743 -61.915,61.915l0,42.433c0,34.172 27.743,61.915 61.915,61.915c34.172,0 61.915,-27.743 61.915,-61.915l0,-42.433Z" style="fill:#e1cab0;stroke:#152d53;stroke-width:6px;"/>
            <path d="M1678.64,317.24c24.865,0 45.051,4.774 45.051,10.655c0,5.88 -45.051,10.654 -45.051,10.654c0,0 -45.051,-4.774 -45.051,-10.654c0,-5.881 20.187,-10.655 45.051,-10.655Z" style="fill:#152d53;stroke:#152d53;stroke-width:6px;"/>
            <path id="Arms3" serif:id="Arms" d="M1580.22,619.528l0,9.388l200.73,0l0,-9.388c-3.189,-2.868 -7.733,-5.39 -30.501,-7.081l-135.728,0c-22.769,1.691 -31.313,4.213 -34.501,7.081Z" style="fill:#152d53;fill-opacity:0.195243;"/>
            <path d="M1720.5,507.886l0.124,0.047l0.338,0.131l0.339,0.132l0.179,0.07l0.009,0.004l0.041,0.016l0.275,0.109l0.193,0.077l0.033,0.013l0.066,0.026l0.242,0.098l0.177,0.071l0.054,0.022l0.092,0.037l0.214,0.088l0.156,0.064l0.076,0.032l0.117,0.048l0.188,0.078l0.134,0.056l0.096,0.04l0.144,0.06l0.163,0.069l0.11,0.047l0.117,0.049l0.17,0.073l0.138,0.059l0.088,0.037l0.133,0.058l0.2,0.086l0.113,0.049l0.065,0.028l0.147,0.065l0.232,0.101l0.089,0.04l0.041,0.018l0.154,0.068l0.272,0.121l0.064,0.029l0.018,0.008l0.133,0.059c0.448,0.202 0.895,0.407 1.34,0.614l0.101,0.047l0.32,0.15l0.125,0.059l0.024,0.011l0.08,0.038l0.268,0.128l0.13,0.061l0.043,0.021l0.106,0.051l0.232,0.112l0.119,0.057l0.062,0.03l0.133,0.065l0.201,0.099l0.102,0.05l0.079,0.039l0.162,0.079l0.172,0.086l0.084,0.041l0.094,0.047l0.192,0.096l0.146,0.074l0.064,0.032l0.104,0.052l0.227,0.115l0.12,0.061l0.043,0.022l0.108,0.055l0.268,0.137l0.095,0.05l0.022,0.011l0.092,0.048l0.328,0.17l0.079,0.041c0.633,0.332 1.263,0.669 1.889,1.012l0.055,0.03l0.011,0.007l0.097,0.052l0.298,0.166l0.078,0.043l0.028,0.015l0.124,0.069l0.253,0.142l0.078,0.043l0.043,0.025l0.153,0.086l0.217,0.123l0.068,0.038l0.055,0.032l0.185,0.105l0.185,0.107l0.054,0.031l0.064,0.037l0.22,0.126l0.157,0.092l0.037,0.022l0.066,0.038l0.261,0.152l0.13,0.077l0.02,0.012l0.053,0.031l0.316,0.187l0.112,0.066c0.938,0.56 1.868,1.132 2.788,1.719l0.178,0.113l0.277,0.178l0.033,0.021l0.02,0.013l0.176,0.113l0.236,0.154l0.031,0.02l0.026,0.017l0.212,0.138l0.201,0.132l0.022,0.015l0.027,0.018l0.253,0.166l0.196,0.131c25.312,16.856 37.254,33.921 41.925,65.293l0,33.417l-35.684,0c-5.714,42.573 -5.456,69.166 0,111.083l-134.17,0c6.286,-58.978 4.925,-81.952 0,-111.083l-36.875,0l0,-18.67c0.487,-35.012 11.37,-56.091 37.311,-75.897l0,0l0.001,0c0.724,-0.553 1.455,-1.098 2.194,-1.633l0.011,-0.008l0.006,-0.005l0.188,-0.136l0.232,-0.166l0.021,-0.015l0.024,-0.017l0.256,-0.184l0.165,-0.117l0.003,-0.002l0.006,-0.005c0.585,-0.415 1.174,-0.824 1.768,-1.228l0.034,-0.023l0.015,-0.01l0.164,-0.113l0.234,-0.157l0.043,-0.029l0.042,-0.028l0.226,-0.152l0.168,-0.112l0.022,-0.014l0.048,-0.032c0.576,-0.383 1.156,-0.761 1.74,-1.134l0.059,-0.037l0.021,-0.014l0.143,-0.091l0.236,-0.149l0.066,-0.042l0.054,-0.034l0.2,-0.126l0.17,-0.106l0.043,-0.026l0.077,-0.048l0.268,-0.167l0.115,-0.07l0.009,-0.006l0.045,-0.028c0.427,-0.262 0.855,-0.522 1.285,-0.779l0.086,-0.051l0.024,-0.014l0.124,-0.074l0.236,-0.14l0.091,-0.053l0.063,-0.038l0.177,-0.104l0.173,-0.1l0.063,-0.037l0.097,-0.056l0.236,-0.138l0.118,-0.067l0.027,-0.016l0.107,-0.061c0.405,-0.232 0.811,-0.462 1.22,-0.69l0.117,-0.065l0.025,-0.014l0.106,-0.059l0.236,-0.13l0.117,-0.065l0.069,-0.037l0.156,-0.086l0.175,-0.095l0.086,-0.047l0.109,-0.059l0.209,-0.113l0.122,-0.065l0.047,-0.025l0.141,-0.076l0.272,-0.145l0.071,-0.037l0.004,-0.002l0.066,-0.035l0.443,-0.233l0.317,-0.165l0.155,-0.081l0.025,-0.012l0.089,-0.046l0.234,-0.12l0.145,-0.075l0.072,-0.036l0.137,-0.07l0.177,-0.089l0.109,-0.055l0.118,-0.059l0.186,-0.094l0.126,-0.063l0.065,-0.033l0.163,-0.08l0.238,-0.118l0.076,-0.037l0.02,-0.01l0.196,-0.096l0.302,-0.147l0.292,-0.141l0.209,-0.101l0.022,-0.01l0.073,-0.035l0.229,-0.109l0.177,-0.084l0.072,-0.034l0.12,-0.056l0.179,-0.084l0.132,-0.062l0.122,-0.057l0.167,-0.077l0.13,-0.06l0.085,-0.04l0.175,-0.079l0.212,-0.098l0.081,-0.036l0.038,-0.018l0.239,-0.107l0.246,-0.111l0.219,-0.098l0.311,-0.138l0.018,-0.008l0.057,-0.026l0.222,-0.097l0.212,-0.093l0.07,-0.03l0.104,-0.045l0.18,-0.078l0.157,-0.068l0.123,-0.052l0.15,-0.065l0.134,-0.056l0.105,-0.045l0.181,-0.076l0.191,-0.081l0.086,-0.036l0.056,-0.023l0.255,-0.106l0.216,-0.09l0.038,-0.016c0.178,-0.073 0.356,-0.146 0.534,-0.218l0.043,-0.018l0.112,-0.044c0,0 26.745,26.438 40.141,26.317c13.395,-0.121 40.231,-27.044 40.231,-27.044l-0.062,-0.024l-0.045,-0.018l0.107,0.042Z" style="fill:#ebebeb;stroke:#152d53;stroke-width:6px;"/>
            <path d="M1657.19,550.887l13.925,103.646l-0.881,131.138l-59.977,-8.178c10.577,-58.073 10.551,-120.62 5.422,-149.751c4.757,33.211 4.185,65.375 0,96.829l-38.401,0l0,-115.499c0.507,-35.012 11.841,-56.091 38.855,-75.897l0,0l0,0c0.755,-0.553 1.517,-1.098 2.286,-1.633l0.012,-0.008l0.006,-0.005l0.195,-0.136l0.242,-0.166l0.021,-0.015l0.025,-0.017l0.267,-0.184l0.172,-0.117l0.003,-0.002l0.007,-0.005c0.609,-0.415 1.222,-0.824 1.84,-1.228l0.036,-0.023l0.015,-0.01l0.172,-0.113l0.243,-0.157l0.045,-0.029l0.043,-0.028l0.236,-0.152l0.175,-0.112l0.023,-0.014l0.05,-0.032c0.6,-0.383 1.204,-0.761 1.812,-1.134l0.061,-0.037l0.022,-0.014l0.149,-0.091l0.245,-0.149l0.069,-0.042l0.057,-0.034l0.208,-0.126l0.178,-0.106l0.044,-0.026l0.08,-0.048l0.279,-0.167l0.12,-0.07l0.009,-0.006l0.048,-0.028c0.443,-0.262 0.889,-0.522 1.337,-0.779l0.09,-0.051l0.025,-0.014l0.129,-0.074l0.246,-0.14l0.094,-0.053l0.066,-0.038l0.184,-0.104l0.18,-0.1l0.067,-0.037l0.1,-0.056l0.246,-0.138l0.123,-0.067l0.028,-0.016l0.111,-0.061c0.422,-0.232 0.845,-0.462 1.271,-0.69l0.122,-0.065l0.026,-0.014l0.11,-0.059l0.246,-0.13l0.122,-0.065l0.071,-0.037l0.163,-0.086l0.182,-0.095l0.089,-0.047l0.115,-0.059l0.217,-0.113l0.127,-0.065l0.049,-0.025l0.147,-0.076l0.283,-0.145l0.074,-0.037l0.004,-0.002l0.069,-0.035l0.461,-0.233l0.331,-0.165l0.161,-0.081l0.026,-0.012l0.092,-0.046l0.244,-0.12l0.152,-0.075l0.074,-0.036l0.143,-0.07l0.184,-0.089l0.113,-0.055l0.123,-0.059l0.194,-0.094l0.131,-0.063l0.069,-0.033l0.169,-0.08l0.248,-0.118l0.079,-0.037l0.021,-0.01l0.204,-0.096l0.314,-0.147l0.305,-0.141l0.217,-0.101l0.023,-0.01l0.076,-0.035l0.239,-0.109l0.184,-0.084l0.075,-0.034l0.125,-0.056l0.186,-0.084l0.138,-0.062l0.127,-0.057l0.173,-0.077l0.136,-0.06l0.089,-0.04l0.182,-0.079l0.22,-0.098l0.084,-0.036l0.04,-0.018l0.249,-0.107l0.256,-0.111l0.228,-0.098l0.324,-0.138l0.019,-0.008l0.06,-0.026l0.231,-0.097l0.221,-0.093l0.072,-0.03l0.109,-0.045l0.187,-0.078l0.164,-0.068l0.127,-0.052l0.156,-0.065l0.14,-0.056l0.11,-0.045l0.188,-0.076l0.199,-0.081l0.09,-0.036l0.058,-0.023l0.266,-0.106l0.225,-0.09l0.04,-0.016c0.185,-0.073 0.37,-0.146 0.555,-0.218l0.045,-0.018l0.116,-0.044l14.462,32.274Z" style="fill:#152e53;fill-opacity:0.2;"/>
            <path d="M1705.96,550.887l-13.925,103.646l0.881,131.138l59.977,-8.178c-10.577,-58.073 -10.551,-120.62 -5.422,-149.751c-4.757,33.211 -4.185,65.375 0,96.829l38.401,0l0,-115.499c-0.507,-35.012 -11.841,-56.091 -38.855,-75.897l0,0l-0.001,0c-0.754,-0.553 -1.516,-1.098 -2.285,-1.633l-0.012,-0.008l-0.006,-0.005l-0.196,-0.136l-0.241,-0.166l-0.021,-0.015l-0.025,-0.017l-0.268,-0.184l-0.171,-0.117l-0.003,-0.002l-0.007,-0.005c-0.609,-0.415 -1.223,-0.824 -1.84,-1.228l-0.036,-0.023l-0.015,-0.01l-0.172,-0.113l-0.243,-0.157l-0.045,-0.029l-0.043,-0.028l-0.236,-0.152l-0.175,-0.112l-0.023,-0.014l-0.05,-0.032c-0.6,-0.383 -1.204,-0.761 -1.812,-1.134l-0.061,-0.037l-0.022,-0.014l-0.149,-0.091l-0.245,-0.149l-0.069,-0.042l-0.057,-0.034l-0.208,-0.126l-0.178,-0.106l-0.044,-0.026l-0.08,-0.048l-0.279,-0.167l-0.12,-0.07l-0.009,-0.006l-0.048,-0.028c-0.444,-0.262 -0.889,-0.522 -1.337,-0.779l-0.09,-0.051l-0.025,-0.014l-0.129,-0.074l-0.246,-0.14l-0.094,-0.053l-0.067,-0.038l-0.183,-0.104l-0.18,-0.1l-0.067,-0.037l-0.1,-0.056l-0.246,-0.138l-0.123,-0.067l-0.029,-0.016l-0.11,-0.061c-0.422,-0.232 -0.846,-0.462 -1.271,-0.69l-0.122,-0.065l-0.026,-0.014l-0.11,-0.059l-0.246,-0.13l-0.122,-0.065l-0.072,-0.037l-0.162,-0.086l-0.182,-0.095l-0.089,-0.047l-0.115,-0.059l-0.217,-0.113l-0.127,-0.065l-0.049,-0.025l-0.147,-0.076l-0.283,-0.145l-0.074,-0.037l-0.004,-0.002l-0.069,-0.035l-0.461,-0.233l-0.331,-0.165l-0.161,-0.081l-0.026,-0.012l-0.093,-0.046l-0.243,-0.12l-0.152,-0.075l-0.074,-0.036l-0.143,-0.07l-0.184,-0.089l-0.113,-0.055l-0.123,-0.059l-0.194,-0.094l-0.131,-0.063l-0.069,-0.033l-0.169,-0.08l-0.248,-0.118l-0.079,-0.037l-0.021,-0.01l-0.204,-0.096l-0.314,-0.147l-0.305,-0.141l-0.217,-0.101l-0.023,-0.01l-0.076,-0.035l-0.239,-0.109l-0.184,-0.084l-0.075,-0.034l-0.125,-0.056l-0.186,-0.084l-0.138,-0.062l-0.127,-0.057l-0.173,-0.077l-0.136,-0.06l-0.089,-0.04l-0.182,-0.079l-0.22,-0.098l-0.085,-0.036l-0.039,-0.018l-0.249,-0.107l-0.256,-0.111l-0.228,-0.098l-0.324,-0.138l-0.019,-0.008l-0.06,-0.026l-0.231,-0.097l-0.221,-0.093l-0.072,-0.03l-0.109,-0.045l-0.187,-0.078l-0.164,-0.068l-0.127,-0.052l-0.157,-0.065l-0.139,-0.056l-0.11,-0.045l-0.188,-0.076l-0.199,-0.081l-0.09,-0.036l-0.058,-0.023l-0.266,-0.106l-0.225,-0.09l-0.04,-0.016c-0.185,-0.073 -0.37,-0.146 -0.556,-0.218l-0.045,-0.018l-0.115,-0.044l-14.462,32.274Z" style="fill:#152e53;fill-opacity:0.2;"/>
            <path d="M1654.01,540.887l13.371,103.646l-5.647,131.138l-52.793,-8.178c10.157,-58.073 10.132,-120.62 5.207,-149.751c4.568,33.211 4.019,65.375 0,96.829l-36.875,0l0,-115.499c0.487,-35.012 11.37,-56.091 37.311,-75.897l0,0l0.001,0c0.724,-0.553 1.455,-1.098 2.194,-1.633l0.011,-0.008l0.006,-0.005l0.188,-0.136l0.232,-0.166l0.021,-0.015l0.024,-0.017l0.256,-0.184l0.165,-0.117l0.003,-0.002l0.006,-0.005c0.585,-0.415 1.174,-0.824 1.768,-1.228l0.034,-0.023l0.015,-0.01l0.164,-0.113l0.234,-0.157l0.043,-0.029l0.042,-0.028l0.226,-0.152l0.168,-0.112l0.022,-0.014l0.048,-0.032c0.576,-0.383 1.156,-0.761 1.74,-1.134l0.059,-0.037l0.021,-0.014l0.143,-0.091l0.236,-0.149l0.066,-0.042l0.054,-0.034l0.2,-0.126l0.17,-0.106l0.043,-0.026l0.077,-0.048l0.268,-0.167l0.115,-0.07l0.009,-0.006l0.045,-0.028c0.427,-0.262 0.855,-0.522 1.285,-0.779l0.086,-0.051l0.024,-0.014l0.124,-0.074l0.236,-0.14l0.091,-0.053l0.063,-0.038l0.177,-0.104l0.173,-0.1l0.063,-0.037l0.097,-0.056l0.236,-0.138l0.118,-0.067l0.027,-0.016l0.107,-0.061c0.405,-0.232 0.811,-0.462 1.22,-0.69l0.117,-0.065l0.025,-0.014l0.106,-0.059l0.236,-0.13l0.117,-0.065l0.069,-0.037l0.156,-0.086l0.175,-0.095l0.086,-0.047l0.109,-0.059l0.209,-0.113l0.122,-0.065l0.047,-0.025l0.141,-0.076l0.272,-0.145l0.071,-0.037l0.004,-0.002l0.066,-0.035l0.443,-0.233l0.317,-0.165l0.155,-0.081l0.025,-0.012l0.089,-0.046l0.234,-0.12l0.145,-0.075l0.072,-0.036l0.137,-0.07l0.177,-0.089l0.109,-0.055l0.118,-0.059l0.186,-0.094l0.126,-0.063l0.065,-0.033l0.163,-0.08l0.238,-0.118l0.076,-0.037l0.02,-0.01l0.196,-0.096l0.302,-0.147l0.292,-0.141l0.209,-0.101l0.022,-0.01l0.073,-0.035l0.229,-0.109l0.177,-0.084l0.072,-0.034l0.12,-0.056l0.179,-0.084l0.132,-0.062l0.122,-0.057l0.167,-0.077l0.13,-0.06l0.085,-0.04l0.175,-0.079l0.212,-0.098l0.081,-0.036l0.038,-0.018l0.239,-0.107l0.246,-0.111l0.219,-0.098l0.311,-0.138l0.018,-0.008l0.057,-0.026l0.222,-0.097l0.212,-0.093l0.07,-0.03l0.104,-0.045l0.18,-0.078l0.157,-0.068l0.123,-0.052l0.15,-0.065l0.134,-0.056l0.105,-0.045l0.181,-0.076l0.191,-0.081l0.086,-0.036l0.056,-0.023l0.255,-0.106l0.216,-0.09l0.038,-0.016c0.178,-0.073 0.356,-0.146 0.534,-0.218l0.043,-0.018l0.112,-0.044l13.887,32.274Z" style="fill:#5f9aff;stroke:#152d53;stroke-width:6px;"/>
            <path d="M1707.27,540.887l-13.372,103.646l5.647,131.138l52.793,-8.178c-10.156,-58.073 -10.132,-120.62 -5.207,-149.751c-4.568,33.211 -4.019,65.375 0,96.829l36.876,0l0,-115.499c-0.487,-35.012 -11.37,-56.091 -37.312,-75.897l0,0l0,0c-0.724,-0.553 -1.456,-1.098 -2.194,-1.633l-0.012,-0.008l-0.006,-0.005l-0.188,-0.136l-0.231,-0.166l-0.021,-0.015l-0.024,-0.017l-0.257,-0.184l-0.164,-0.117l-0.003,-0.002l-0.007,-0.005c-0.585,-0.415 -1.174,-0.824 -1.767,-1.228l-0.034,-0.023l-0.015,-0.01l-0.165,-0.113l-0.234,-0.157l-0.042,-0.029l-0.042,-0.028l-0.226,-0.152l-0.168,-0.112l-0.022,-0.014l-0.048,-0.032c-0.577,-0.383 -1.157,-0.761 -1.741,-1.134l-0.058,-0.037l-0.021,-0.014l-0.143,-0.091l-0.236,-0.149l-0.066,-0.042l-0.055,-0.034l-0.199,-0.126l-0.171,-0.106l-0.042,-0.026l-0.077,-0.048l-0.269,-0.167l-0.114,-0.07l-0.009,-0.006l-0.046,-0.028c-0.426,-0.262 -0.854,-0.522 -1.284,-0.779l-0.086,-0.051l-0.024,-0.014l-0.124,-0.074l-0.236,-0.14l-0.091,-0.053l-0.064,-0.038l-0.176,-0.104l-0.173,-0.1l-0.064,-0.037l-0.097,-0.056l-0.235,-0.138l-0.118,-0.067l-0.028,-0.016l-0.106,-0.061c-0.405,-0.232 -0.812,-0.462 -1.22,-0.69l-0.117,-0.065l-0.026,-0.014l-0.105,-0.059l-0.236,-0.13l-0.117,-0.065l-0.069,-0.037l-0.156,-0.086l-0.175,-0.095l-0.086,-0.047l-0.11,-0.059l-0.209,-0.113l-0.122,-0.065l-0.046,-0.025l-0.142,-0.076l-0.271,-0.145l-0.072,-0.037l-0.003,-0.002l-0.066,-0.035l-0.443,-0.233l-0.318,-0.165l-0.155,-0.081l-0.025,-0.012l-0.088,-0.046l-0.234,-0.12l-0.146,-0.075l-0.071,-0.036l-0.137,-0.07l-0.178,-0.089l-0.108,-0.055l-0.118,-0.059l-0.186,-0.094l-0.126,-0.063l-0.066,-0.033l-0.163,-0.08l-0.237,-0.118l-0.076,-0.037l-0.021,-0.01l-0.195,-0.096l-0.302,-0.147l-0.293,-0.141l-0.208,-0.101l-0.022,-0.01l-0.073,-0.035l-0.23,-0.109l-0.177,-0.084l-0.071,-0.034l-0.12,-0.056l-0.179,-0.084l-0.132,-0.062l-0.122,-0.057l-0.167,-0.077l-0.13,-0.06l-0.086,-0.04l-0.174,-0.079l-0.212,-0.098l-0.081,-0.036l-0.038,-0.018l-0.239,-0.107l-0.246,-0.111l-0.219,-0.098l-0.311,-0.138l-0.018,-0.008l-0.058,-0.026l-0.222,-0.097l-0.212,-0.093l-0.069,-0.03l-0.104,-0.045l-0.18,-0.078l-0.157,-0.068l-0.123,-0.052l-0.15,-0.065l-0.134,-0.056l-0.106,-0.045l-0.18,-0.076l-0.191,-0.081l-0.087,-0.036l-0.055,-0.023l-0.256,-0.106l-0.216,-0.09l-0.038,-0.016c-0.177,-0.073 -0.355,-0.146 -0.534,-0.218l-0.043,-0.018l-0.111,-0.044l-13.887,32.274Z" style="fill:#5f9aff;stroke:#152d53;stroke-width:6px;"/>
            <g>
                <g>
                    <path d="M1651.96,371.215l0.253,0.002l0.253,0.002l0.253,0.004l0.253,0.004l0.253,0.006l0.253,0.007l0.09,0.002l0.169,0.024l0.262,0.037l0.261,0.038l0.261,0.039l0.262,0.041l0.225,0.035l0.036,0.009l0.266,0.061l0.263,0.062l2.645,1.341l-1.506,2.554l-0.18,0.192l-0.175,0.192l-0.024,0.026l-0.155,0.15l-0.177,0.174l-0.177,0.174l-0.175,0.174l-0.174,0.175l-0.111,0.112l-0.065,0.053l-0.181,0.146l-0.179,0.148l-0.178,0.147l-0.178,0.148l-0.176,0.148l-0.175,0.149l-0.174,0.148l-0.028,0.024l-0.154,0.1l-0.183,0.119l-0.182,0.12l-0.181,0.119l-0.043,0.03l-0.143,0.075l-0.187,0.1l-0.053,0.029l-0.138,0.059l-0.192,0.084l-0.057,0.026l-0.138,0.049l-0.197,0.07l-0.196,0.071l-0.196,0.072l-0.195,0.072l-0.195,0.073l-0.194,0.073l-0.194,0.075l-0.193,0.074l-0.107,0.042l-0.087,0.031l-0.195,0.07l-0.194,0.071l-0.194,0.071l-0.193,0.072l-0.193,0.072l-0.193,0.073l-0.192,0.074l-0.191,0.075l-0.192,0.075l-0.19,0.076l-0.19,0.077l-0.063,0.025l-0.129,0.049l-0.191,0.073l-0.191,0.075l-0.191,0.075l-0.19,0.075l-0.189,0.076l-0.19,0.077l-0.189,0.078l-0.188,0.078l-0.188,0.079l-0.188,0.08l-0.187,0.08l-0.187,0.082l-0.186,0.081l-0.186,0.083l-0.185,0.083l-0.185,0.084l-0.185,0.085l-0.184,0.085l-0.184,0.086l-0.184,0.087l-0.183,0.087l-0.182,0.088l-0.182,0.089l-0.182,0.09l-0.181,0.09l-0.181,0.091l-0.181,0.091l-0.132,0.068l-0.048,0.024l-0.182,0.09l-0.181,0.091l-0.18,0.092l-0.18,0.093l-0.18,0.093l-0.18,0.094l-0.179,0.095l-0.178,0.095l-0.179,0.096l-0.177,0.097l-0.178,0.098l-0.177,0.098l-0.177,0.099l-0.176,0.1l-0.176,0.101l-0.175,0.101l-0.175,0.102l-0.175,0.103l-0.175,0.103l-0.174,0.104l-0.173,0.105l-0.173,0.106l-0.173,0.106l-0.173,0.107l-0.172,0.108l-0.171,0.109l-0.171,0.109l-0.171,0.11l-0.171,0.111l-0.118,0.078l-0.052,0.034l-0.171,0.111l-0.17,0.112l-0.17,0.113l-0.169,0.113l-0.169,0.114l-0.169,0.115l-0.169,0.116l-0.167,0.117l-0.168,0.117l-0.167,0.118l-0.167,0.119l-0.167,0.119l-0.166,0.121l-0.165,0.121l-0.166,0.122l-0.165,0.122l-0.164,0.124l-0.164,0.124l-0.164,0.125l-0.164,0.125l-0.163,0.127l-0.162,0.127l-0.162,0.128l-0.162,0.129l-0.074,0.059l-0.091,0.073l-0.008,0.006l-1.491,0.517l-1.363,-0.53l-0.014,-0.015l-0.519,-1.37l0.534,-1.484l0.006,-0.008l0.077,-0.093l0.063,-0.076l0.144,-0.171l0.144,-0.17l0.145,-0.17l0.145,-0.17l0.147,-0.168l0.147,-0.169l0.147,-0.167l0.149,-0.167l0.149,-0.167l0.149,-0.166l0.151,-0.165l0.151,-0.165l0.152,-0.164l0.153,-0.163l0.153,-0.163l0.154,-0.163l0.155,-0.161l0.155,-0.162l0.156,-0.16l0.157,-0.16l0.157,-0.16l0.159,-0.158l0.158,-0.159l0.16,-0.157l0.049,-0.048l0.112,-0.109l0.162,-0.155l0.163,-0.155l0.163,-0.154l0.164,-0.153l0.165,-0.153l0.165,-0.152l0.166,-0.152l0.167,-0.151l0.167,-0.151l0.169,-0.149l0.168,-0.15l0.17,-0.148l0.17,-0.148l0.171,-0.147l0.172,-0.147l0.172,-0.146l0.173,-0.146l0.174,-0.145l0.174,-0.144l0.176,-0.144l0.175,-0.143l0.177,-0.142l0.177,-0.142l0.178,-0.141l0.179,-0.141l0.179,-0.139l0.18,-0.14l0.181,-0.138l0.181,-0.138l0.049,-0.037l0.134,-0.099l0.185,-0.134l0.185,-0.133l0.186,-0.133l0.186,-0.132l0.187,-0.131l0.188,-0.131l0.188,-0.13l0.189,-0.13l0.19,-0.129l0.191,-0.128l0.191,-0.127l0.192,-0.127l0.192,-0.126l0.193,-0.126l0.194,-0.125l0.194,-0.124l0.196,-0.124l0.195,-0.123l0.197,-0.122l0.197,-0.121l0.198,-0.121l0.198,-0.121l0.199,-0.119l0.2,-0.119l0.2,-0.118l0.202,-0.118l0.201,-0.117l0.136,-0.078l0.067,-0.037l0.206,-0.111l0.205,-0.11l0.207,-0.11l0.207,-0.109l0.208,-0.109l0.208,-0.108l0.209,-0.107l0.209,-0.106l0.21,-0.106l0.211,-0.105l0.212,-0.104l0.094,-0.046l0.119,-0.054l0.215,-0.097l0.216,-0.095l0.217,-0.096l0.217,-0.094l0.217,-0.094l0.218,-0.093l0.219,-0.092l0.219,-0.092l0.155,-0.064l0.067,-0.022l0.226,-0.075l0.162,-0.054l0.066,-0.016l0.234,-0.056l0.177,-0.043l0.058,-0.008l0.242,-0.034l0.242,-0.033l0.242,-0.032l0.203,-0.026l0.041,0l0.252,0Z" style="fill:#152d53;"/>
                    <path d="M1705.15,370.812l0.217,0.016l0.217,0.017l0.218,0.019l0.218,0.02l0.03,0.003l0.184,0.034l0.213,0.04l0.109,0.022l0.102,0.028l0.209,0.058l0.174,0.05l0.034,0.012l0.204,0.074l0.205,0.075l0.204,0.077l0.204,0.077l0.204,0.079l0.204,0.081l0.204,0.081l0.203,0.083l0.204,0.084l0.203,0.086l0.064,0.027l0.138,0.063l0.201,0.094l0.201,0.095l0.2,0.096l0.201,0.097l0.2,0.099l0.2,0.099l0.2,0.102l0.199,0.102l0.2,0.104l0.199,0.105l0.199,0.106l0.199,0.107l0.027,0.015l0.17,0.098l0.196,0.114l0.196,0.115l0.196,0.117l0.196,0.118l0.195,0.119l0.196,0.121l0.194,0.122l0.195,0.123l0.195,0.124l0.194,0.126l0.194,0.127l0.193,0.128l0.194,0.129l0.193,0.131l0.193,0.132l0.193,0.134l0.192,0.134l0.192,0.136l0.192,0.137l0.192,0.139l0.191,0.14l0.192,0.141l0.19,0.142l0.191,0.144l0.191,0.145l0.19,0.146l0.19,0.147l0.158,0.125l0.031,0.025l0.188,0.153l0.187,0.154l0.187,0.155l0.187,0.157l0.187,0.158l0.186,0.159l0.186,0.161l0.185,0.162l0.186,0.163l0.185,0.165l0.185,0.166l0.184,0.167l0.185,0.169l0.184,0.17l0.184,0.171l0.183,0.172l0.184,0.174l0.183,0.175l0.182,0.177l0.183,0.178l0.182,0.179l0.182,0.18l0.182,0.182l0.181,0.183l0.181,0.185l0.181,0.185l0.181,0.188l0.006,0.006l0.174,0.183l0.179,0.192l0.178,0.192l0.179,0.194l0.178,0.195l0.178,0.196l0.178,0.198l0.178,0.2l0.177,0.2l0.177,0.202l0.177,0.204l0.176,0.204l0.176,0.206l0.176,0.208l0.176,0.209l0.176,0.21l0.175,0.211l0.175,0.213l0.175,0.215l0.174,0.216l0.096,0.12l0.076,0.094l0.006,0.008l0.508,1.492l-0.542,1.362l-0.014,0.014l-1.373,0.507l-1.481,-0.542l-0.008,-0.007l-0.09,-0.075l-0.115,-0.096l-0.202,-0.167l-0.201,-0.165l-0.202,-0.164l-0.201,-0.162l-0.2,-0.161l-0.201,-0.159l-0.2,-0.158l-0.199,-0.156l-0.2,-0.154l-0.199,-0.154l-0.199,-0.151l-0.198,-0.15l-0.198,-0.149l-0.198,-0.147l-0.198,-0.145l-0.197,-0.144l-0.197,-0.143l-0.197,-0.141l-0.196,-0.139l-0.19,-0.134l-0.006,-0.004l-0.194,-0.138l-0.195,-0.137l-0.194,-0.134l-0.193,-0.134l-0.194,-0.132l-0.193,-0.13l-0.192,-0.129l-0.193,-0.128l-0.192,-0.126l-0.191,-0.125l-0.192,-0.123l-0.191,-0.122l-0.191,-0.12l-0.19,-0.119l-0.19,-0.118l-0.19,-0.116l-0.19,-0.115l-0.189,-0.113l-0.189,-0.112l-0.189,-0.111l-0.188,-0.109l-0.188,-0.108l-0.187,-0.106l-0.187,-0.105l-0.187,-0.104l-0.187,-0.102l-0.186,-0.101l-0.031,-0.017l-0.154,-0.085l-0.183,-0.101l-0.184,-0.1l-0.183,-0.098l-0.183,-0.097l-0.183,-0.096l-0.182,-0.094l-0.182,-0.093l-0.182,-0.092l-0.181,-0.09l-0.181,-0.09l-0.181,-0.087l-0.181,-0.087l-0.18,-0.085l-0.18,-0.084l-0.18,-0.083l-0.179,-0.082l-0.179,-0.08l-0.179,-0.079l-0.178,-0.078l-0.178,-0.076l-0.178,-0.075l-0.178,-0.074l-0.177,-0.073l-0.177,-0.072l-0.177,-0.07l-0.176,-0.069l-0.176,-0.068l-0.152,-0.058l-0.024,-0.01l-0.173,-0.069l-0.173,-0.069l-0.173,-0.067l-0.173,-0.066l-0.173,-0.065l-0.172,-0.064l-0.172,-0.063l-0.172,-0.062l-0.172,-0.06l-0.171,-0.059l-0.171,-0.059l-0.171,-0.057l-0.118,-0.038l-0.052,-0.019l-0.169,-0.061l-0.168,-0.059l-0.168,-0.058l-0.168,-0.058l-0.167,-0.056l-0.168,-0.055l-0.167,-0.054l-0.168,-0.053l-0.167,-0.051l-0.167,-0.051l-0.027,-0.008l-0.136,-0.053l-0.162,-0.062l-0.08,-0.03l-0.081,-0.038l-0.158,-0.075l-0.136,-0.064l-0.021,-0.013l-0.153,-0.091l-0.153,-0.09l-0.154,-0.089l-0.154,-0.088l-0.101,-0.057l-0.052,-0.04l-0.148,-0.112l-0.149,-0.112l-0.149,-0.111l-0.15,-0.11l-0.152,-0.109l-0.151,-0.109l-0.153,-0.107l-0.153,-0.106l-0.1,-0.068l-0.052,-0.046l-0.15,-0.128l-0.151,-0.128l-0.152,-0.127l-0.152,-0.126l-0.154,-0.124l-0.155,-0.124l-0.057,-0.045l-0.097,-0.088l-0.155,-0.137l-0.161,-0.138l-1.769,-2.356l2.446,-1.645l0.209,-0.074l0.216,-0.073l0.138,-0.045l0.078,-0.021l0.215,-0.055l0.217,-0.053l0.217,-0.053l0.219,-0.051l0.219,-0.05l0.221,-0.049l0.078,-0.016l0.141,-0.016l0.217,-0.022l0.218,-0.021l0.219,-0.019l0.219,-0.018l0.221,-0.017l0.221,-0.016l0.222,-0.014l0.223,-0.013l0.077,-0.005l0.141,0.01Z" style="fill:#152d53;"/>
                </g>
                <path d="M1675.85,425.095c3.193,-1.358 6.343,-1.286 9.455,0" style="fill:none;stroke:#152d53;stroke-width:6px;"/>
                <g>
                    <circle cx="1651.76" cy="395.689" r="3.884" style="fill:#152d53;stroke:#152d53;stroke-width:9px;"/>
                    <circle cx="1703.6" cy="395.689" r="3.884" style="fill:#152d53;stroke:#152d53;stroke-width:9px;"/>
                </g>
                <path d="M1668.78,452.725c8.952,4.593 16.67,3.97 23.597,0" style="fill:none;stroke:#152d53;stroke-width:6px;"/>
            </g>
            <path d="M1691.81,332.583c-20.356,22.614 -70.848,54.665 -76.282,53.63c-17.158,-30.813 22.114,-82.973 65.049,-81.313c2.447,0.095 4.871,0.252 7.267,0.518l0.043,-0.086c40.969,-1.328 76.828,57.602 58.17,80.905c-4.538,3.831 -39.291,-30.767 -54.247,-53.654Z" style="fill:#ecd611;stroke:#152d53;stroke-width:6px;"/>
            <path d="M1613.66,582.758c-0.314,-0.366 1.749,13.294 11.001,22.43c3.993,3.943 10.905,6.023 17.781,7.259c16.543,2.974 31.165,-5.433 32.667,-9.007c0,9.942 -12.928,18.014 -28.852,18.014c-12.986,0 -23.98,-5.369 -27.594,-12.742l-1.206,9.31l-6.594,0l2.797,-35.264Z" style="fill:#152d53;fill-opacity:0.2;"/>
            <path d="M1748.02,582.758c0.314,-0.366 -1.748,13.294 -11,22.43c-3.994,3.943 -10.906,6.023 -17.782,7.259c-16.543,2.974 -31.165,-5.433 -32.667,-9.007c0,9.942 12.928,18.014 28.852,18.014c12.986,0 23.98,-5.369 27.594,-12.742l1.206,9.31l6.594,0l-2.797,-35.264Z" style="fill:#152d53;fill-opacity:0.2;"/>
            <circle cx="1641.19" cy="429.331" r="14.609" style="fill:#ff2626;fill-opacity:0.100392;"/>
            <circle cx="1719.97" cy="429.331" r="14.609" style="fill:#ff2626;fill-opacity:0.100392;"/>
            <path d="M1614.92,728.825l20.065,2.964" style="fill:none;stroke:#152d53;stroke-width:6px;"/>
            <path d="M1746.95,728.825l-20.065,2.964" style="fill:none;stroke:#152d53;stroke-width:6px;"/>
        </g>
        <g id="SupriseLines">
            <path d="M956.041,239.544l0,-31.951" style="fill:none;stroke:#152d53;stroke-width:6px;"/>
            <path d="M993.674,249.381l11.359,-19.675" style="fill:none;stroke:#152d53;stroke-width:6px;"/>
            <path d="M918.408,249.381l-11.36,-19.675" style="fill:none;stroke:#152d53;stroke-width:6px;"/>
        </g>
        <g id="Mentor">
                <rect id="Neck3" serif:id="Neck" x="923.087" y="420.649" width="73.607" height="62.375" style="fill:#c5b8a8;stroke:#152d53;stroke-width:6px;"/>
                <path id="Arms4" serif:id="Arms" d="M850.526,683.234l0,-99.306l218.729,0l0,99.306c-3.188,30.336 -18.732,57.015 -41.501,74.906l-135.727,0c-22.769,-17.891 -38.313,-44.57 -41.501,-74.906Z" style="fill:#c5b8a8;stroke:#152d53;stroke-width:6px;"/>
                <path id="Arms5" serif:id="Arms" d="M850.526,585.715l0,9.388l218.729,0l0,-9.388c-3.188,-2.868 -18.732,-5.39 -41.501,-7.081l-135.727,0c-22.769,1.691 -38.313,4.213 -41.501,7.081Z" style="fill:#152d53;fill-opacity:0.195243;"/>
                <rect id="rLeg18" serif:id="rLeg" x="893.381" y="710.987" width="134.21" height="266.433" style="fill:#374761;stroke:#152d53;stroke-width:6px;"/>
                <rect id="rLeg19" serif:id="rLeg" x="893.381" y="710.987" width="134.21" height="16.469" style="fill:#152d53;fill-opacity:0.199949;"/>
                <path d="M960.675,977.42l-0.784,-266.408" style="fill:none;stroke:#152d53;stroke-width:6px;"/>
                <path id="Hair" d="M908.023,298.457c-2.126,-2.396 -3.288,-4.987 -3.288,-7.689c0,-12.246 23.845,-22.188 53.216,-22.188c29.371,0 53.216,9.942 53.216,22.188c0,2.702 -1.162,5.293 -3.288,7.689l16.988,0l-6.14,70.702l-121.552,0l-6.14,-70.702l16.988,0Z" style="fill:#152d53;stroke:#152d53;stroke-width:6px;"/>
                <path id="Head6" serif:id="Head" d="M995.864,452.436c0,-13.969 -11.341,-35.309 -25.309,-35.309l-24.291,0c-13.969,0 -25.31,21.34 -25.31,35.309c0,13.969 74.91,13.969 74.91,0Z" style="fill:#152d53;fill-opacity:0.2;"/>
                <path d="M892.181,346.117c6.781,-1.029 13.478,5.991 14.946,15.668c1.469,9.676 -2.844,18.367 -9.625,19.396c-6.78,1.029 -13.478,-5.991 -14.946,-15.668c-1.468,-9.676 2.844,-18.367 9.625,-19.396Z" style="fill:#c5b8a8;stroke:#152d53;stroke-width:6px;"/>
                <path d="M892.181,346.117c6.781,-1.029 13.478,5.991 14.946,15.668c1.469,9.676 -2.844,18.367 -9.625,19.396c-6.78,1.029 -13.478,-5.991 -14.946,-15.668c-1.468,-9.676 2.844,-18.367 9.625,-19.396Z" style="fill:#152d53;fill-opacity:0.2;"/>
                <path d="M1025.76,346.117c-6.781,-1.029 -13.478,5.991 -14.946,15.668c-1.469,9.676 2.844,18.367 9.625,19.396c6.78,1.029 13.478,-5.991 14.946,-15.668c1.468,-9.676 -2.844,-18.367 -9.625,-19.396Z" style="fill:#c5b8a8;stroke:#152d53;stroke-width:6px;"/>
                <path d="M1025.76,346.117c-6.781,-1.029 -13.478,5.991 -14.946,15.668c-1.469,9.676 2.844,18.367 9.625,19.396c6.78,1.029 13.478,-5.991 14.946,-15.668c1.468,-9.676 -2.844,-18.367 -9.625,-19.396Z" style="fill:#152d53;fill-opacity:0.2;"/>
                <path id="Head7" serif:id="Head" d="M1021.81,329.52c0,-27.737 -22.519,-50.256 -50.257,-50.256l-23.317,0c-27.737,0 -50.257,22.519 -50.257,50.256l0,65.75c0,27.737 22.52,50.257 50.257,50.257l23.317,0c27.738,0 50.257,-22.52 50.257,-50.257l0,-65.75Z" style="fill:#c5b8a8;stroke:#152d53;stroke-width:6px;"/>
                <ellipse cx="950.451" cy="286.212" rx="31.549" ry="17.632" style="fill:#152d53;stroke:#152d53;stroke-width:6px;"/>
                <path d="M999.748,464.072l0.124,0.048l0.339,0.13l0.338,0.132l0.179,0.07l0.009,0.004l0.042,0.016l0.275,0.11l0.193,0.076l0.032,0.013l0.066,0.026l0.242,0.098l0.177,0.072l0.054,0.022l0.092,0.037l0.214,0.088l0.156,0.064l0.076,0.031l0.118,0.048l0.187,0.079l0.134,0.055l0.097,0.041l0.143,0.06l0.163,0.068l0.111,0.047l0.116,0.05l0.171,0.072l0.137,0.059l0.088,0.038l0.134,0.057l0.199,0.086l0.113,0.05l0.065,0.028l0.148,0.064l0.231,0.102l0.089,0.039l0.041,0.018l0.154,0.069l0.272,0.12l0.065,0.029l0.018,0.008l0.132,0.06c0.448,0.202 0.895,0.406 1.34,0.613l0.101,0.047l0.32,0.15l0.126,0.059l0.023,0.012l0.08,0.037l0.268,0.128l0.13,0.062l0.043,0.021l0.107,0.05l0.231,0.113l0.119,0.057l0.062,0.03l0.133,0.064l0.201,0.099l0.103,0.05l0.078,0.039l0.162,0.079l0.173,0.086l0.084,0.042l0.093,0.047l0.192,0.095l0.146,0.074l0.064,0.032l0.105,0.053l0.226,0.114l0.12,0.062l0.044,0.022l0.107,0.055l0.268,0.137l0.095,0.049l0.023,0.012l0.091,0.047l0.328,0.17l0.079,0.042c0.633,0.331 1.263,0.668 1.889,1.012l0.055,0.03l0.012,0.006l0.096,0.053l0.298,0.165l0.078,0.043l0.028,0.016l0.125,0.069l0.252,0.142l0.078,0.043l0.043,0.024l0.153,0.086l0.217,0.124l0.068,0.038l0.056,0.032l0.184,0.105l0.186,0.106l0.054,0.031l0.064,0.037l0.219,0.127l0.157,0.091l0.038,0.022l0.065,0.038l0.261,0.153l0.13,0.076l0.02,0.012l0.053,0.032l0.317,0.186l0.111,0.067c0.939,0.559 1.868,1.132 2.789,1.718l0.177,0.113l0.277,0.178l0.033,0.021l0.02,0.013l0.177,0.114l0.235,0.153l0.031,0.02l0.027,0.018l0.211,0.137l0.201,0.133l0.022,0.014l0.027,0.018l0.253,0.166l0.197,0.132c25.312,16.856 43.253,43.92 47.924,75.292l0,33.417l-41.683,0l0,127.084l-134.17,0l0,-127.084l-42.876,0l0,-18.669c0.487,-35.012 17.37,-66.091 43.312,-85.897l0,-0.001l0,0c0.724,-0.553 1.456,-1.097 2.194,-1.633l0.012,-0.008l0.006,-0.004l0.188,-0.137l0.231,-0.166l0.021,-0.015l0.024,-0.017l0.256,-0.184l0.165,-0.117l0.003,-0.001l0.007,-0.005c0.585,-0.415 1.174,-0.825 1.767,-1.229l0.034,-0.023l0.015,-0.01l0.165,-0.112l0.234,-0.158l0.042,-0.028l0.042,-0.028l0.226,-0.153l0.168,-0.111l0.022,-0.015l0.048,-0.032c0.576,-0.383 1.157,-0.761 1.74,-1.133l0.059,-0.038l0.021,-0.013l0.143,-0.092l0.236,-0.148l0.066,-0.042l0.055,-0.034l0.199,-0.126l0.171,-0.106l0.042,-0.027l0.077,-0.048l0.268,-0.167l0.115,-0.07l0.009,-0.006l0.046,-0.028c0.426,-0.262 0.854,-0.521 1.284,-0.778l0.086,-0.052l0.024,-0.014l0.124,-0.074l0.236,-0.139l0.091,-0.054l0.064,-0.037l0.176,-0.104l0.173,-0.101l0.064,-0.037l0.096,-0.056l0.236,-0.137l0.118,-0.068l0.028,-0.016l0.106,-0.06c0.405,-0.233 0.812,-0.463 1.22,-0.69l0.117,-0.066l0.026,-0.014l0.105,-0.059l0.236,-0.13l0.117,-0.064l0.069,-0.038l0.156,-0.085l0.175,-0.095l0.086,-0.047l0.11,-0.059l0.209,-0.114l0.122,-0.065l0.046,-0.025l0.142,-0.075l0.271,-0.146l0.072,-0.037l0.003,-0.002l0.066,-0.035l0.443,-0.233l0.318,-0.165l0.155,-0.08l0.024,-0.013l0.089,-0.046l0.234,-0.12l0.146,-0.074l0.071,-0.037l0.137,-0.07l0.177,-0.089l0.109,-0.055l0.118,-0.059l0.186,-0.094l0.126,-0.062l0.066,-0.033l0.162,-0.081l0.238,-0.118l0.076,-0.037l0.021,-0.01l0.195,-0.095l0.302,-0.148l0.293,-0.141l0.208,-0.1l0.022,-0.011l0.073,-0.035l0.23,-0.109l0.177,-0.084l0.071,-0.033l0.12,-0.057l0.179,-0.084l0.132,-0.062l0.122,-0.056l0.167,-0.078l0.13,-0.059l0.085,-0.04l0.175,-0.08l0.212,-0.097l0.081,-0.037l0.038,-0.017l0.239,-0.108l0.246,-0.111l0.219,-0.097l0.311,-0.139l0.018,-0.008l0.058,-0.025l0.222,-0.097l0.211,-0.093l0.07,-0.03l0.104,-0.046l0.18,-0.077l0.157,-0.068l0.123,-0.053l0.15,-0.064l0.134,-0.057l0.106,-0.045l0.18,-0.076l0.191,-0.081l0.087,-0.036l0.055,-0.023l0.255,-0.106l0.217,-0.09l0.038,-0.015c0.177,-0.073 0.355,-0.146 0.533,-0.218l0.044,-0.018l0.111,-0.045l-0.351,-2.827l6.639,53.515l33.853,-35.169l33.853,35.169l6.378,-51.415l-0.061,-0.024l-0.046,-0.017l0.368,-2.059l-0.261,2.1Z" style="fill:#5f9aff;stroke:#152d53;stroke-width:6px;"/>
                <g id="Collar">
                    <path d="M923.696,515.664l-6.639,-53.515l41.462,17.339l-34.823,36.176Z" style="fill:#5f9aff;stroke:#152d53;stroke-width:6px;"/>
                    <path d="M992.774,515.487l6.639,-53.515l-41.462,17.339l34.823,36.176Z" style="fill:#5f9aff;stroke:#152d53;stroke-width:6px;"/>
                </g>
                <g id="HappyFace">
                    <g>
                        <path d="M916.283,331.734l27.575,-4" style="fill:none;stroke:#152d53;stroke-width:9px;"/>
                        <path d="M972.689,327.734l27.575,4" style="fill:none;stroke:#152d53;stroke-width:9px;"/>
                    </g>
                    <g>
                        <path d="M931.579,347.862c2.143,0 3.884,1.74 3.884,3.884c0,2.144 -1.741,2.884 -3.884,2.884c-2.144,0 -3.884,-0.74 -3.884,-2.884c0,-2.144 1.74,-3.884 3.884,-3.884Z" style="fill:#152d53;stroke:#152d53;stroke-width:9px;"/>
                        <path d="M983.415,347.862c2.143,0 3.884,1.74 3.884,3.884c0,2.144 -1.741,2.884 -3.884,2.884c-2.144,0 -3.884,-0.74 -3.884,-2.884c0,-2.144 1.74,-3.884 3.884,-3.884Z" style="fill:#152d53;stroke:#152d53;stroke-width:9px;"/>
                    </g>
                    <path d="M973.689,408.912l-27.597,0c8.574,6.734 20.324,5.935 27.597,0Z" style="fill:none;stroke:#152d53;stroke-width:6px;"/>
                </g>
                <g id="SadFace">
                    <g>
                        <path d="M917.074,337.15l27.575,-5" style="fill:none;stroke:#152d53;stroke-width:9px;"/>
                        <path d="M971.48,332.15l27.574,5" style="fill:none;stroke:#152d53;stroke-width:9px;"/>
                    </g>
                    <g>
                        <circle cx="931.369" cy="360.163" r="3.884" style="fill:#152d53;stroke:#152d53;stroke-width:9px;"/>
                        <circle cx="983.205" cy="360.163" r="3.884" style="fill:#152d53;stroke:#152d53;stroke-width:9px;"/>
                    </g>
                    <path d="M971.48,412.329c-7.729,-3.542 -15.586,-3.77 -23.597,0" style="fill:none;stroke:#152d53;stroke-width:6px;"/>
                    <path id="Tear" d="M920.745,376.463c0,0 -4.934,8.075 -4.934,11.535c0,2.724 2.21,4.935 4.934,4.935c2.723,0 4.934,-2.211 4.934,-4.935c0,-3.46 -4.934,-11.535 -4.934,-11.535Z" style="fill:#64ebff;"/>
                </g>
                <g id="IdleFace">
                    <g>
                        <path d="M917.432,333.111l27.575,0" style="fill:none;stroke:#152d53;stroke-width:9px;"/>
                        <path d="M971.838,333.111l27.575,0" style="fill:none;stroke:#152d53;stroke-width:9px;"/>
                    </g>
                    <g>
                        <circle cx="931.727" cy="351.124" r="3.884" style="fill:#152d53;stroke:#152d53;stroke-width:9px;"/>
                        <circle cx="983.563" cy="351.124" r="3.884" style="fill:#152d53;stroke:#152d53;stroke-width:9px;"/>
                    </g>
                    <path d="M971.838,408.29l-23.597,0" style="fill:none;stroke:#152d53;stroke-width:6px;"/>
                </g>
                <path d="M955.163,381.29c3.193,1.358 6.342,1.285 9.455,0" style="fill:none;stroke:#152d53;stroke-width:6px;"/>
                <circle cx="929.522" cy="354.579" r="18.351" style="fill:none;stroke:#152d53;stroke-width:6px;"/>
                <circle cx="986.179" cy="354.579" r="18.351" style="fill:none;stroke:#152d53;stroke-width:6px;"/>
                <path d="M910.843,351.604l-11.991,-11.174" style="fill:none;stroke:#152d53;stroke-width:6px;"/>
                <path d="M1004.53,351.604l14.688,-13.687" style="fill:none;stroke:#152d53;stroke-width:6px;"/>
                <path d="M949.637,353.371l17.544,0" style="fill:none;stroke:#152d53;stroke-width:6px;"/>
                <path d="M957.631,497.147l0,0.321" style="fill:none;stroke:#152d53;stroke-width:6px;"/>
                <path d="M957.631,517.147l0,0.321" style="fill:none;stroke:#152d53;stroke-width:6px;"/>
                <path d="M895.864,542.457l0,41.471l-13.595,0l13.595,-41.471Z" style="fill:#152d53;fill-opacity:0.2;"/>
                <path d="M1024.87,542.457l0,41.471l13.594,0l-13.594,-41.471Z" style="fill:#152d53;fill-opacity:0.2;"/>
                <g>
                    <path d="M853.61,616.703l0.031,0.001l0.25,0.041l0.28,0.049l0.039,0.007l0.241,0.08l0.278,0.095l0.275,0.097l0.261,0.094l0.01,0.006l0.27,0.138l0.265,0.139l0.223,0.121l0.038,0.024l0.25,0.165l1.522,1.349l-1.515,1.357l-0.235,0.167l-0.034,0.025l-0.194,0.125l-0.228,0.15l-0.228,0.153l-0.009,0.006l-0.219,0.113l-0.229,0.12l-0.228,0.124l-0.197,0.108l-0.032,0.011l-0.231,0.085l-0.206,0.078l-0.026,0.006l-0.21,0.053l-0.025,0.004l-0.208,0.032l-0.031,0.002l-0.241,0.017l-0.242,0.019l-0.243,0.02l-0.244,0.023l-0.076,0.007l-0.169,0.011l-0.246,0.017l-0.247,0.018l-0.248,0.021l-0.247,0.022l-0.208,0.021l-0.04,0.002l-0.25,0.019l-0.249,0.021l-0.249,0.023l-0.249,0.025l-0.248,0.026l-0.248,0.028l-0.247,0.03l-0.246,0.032l-0.246,0.033l-0.245,0.035l-0.243,0.037l-0.242,0.038l-0.241,0.041l-0.004,0l-0.237,0.037l-0.239,0.039l-0.237,0.041l-0.235,0.043l-0.234,0.044l-0.231,0.046l-0.23,0.048l-0.227,0.049l-0.224,0.051l-0.222,0.052l-0.22,0.054l-0.216,0.055l-0.214,0.057l-0.21,0.059l-0.135,0.039l-0.073,0.02l-0.205,0.06l-0.201,0.061l-0.198,0.062l-0.194,0.064l-0.191,0.065l-0.186,0.067l-0.185,0.069l-0.087,0.033l-0.089,0.035l-0.088,0.035l-0.086,0.035l-0.086,0.036l-0.084,0.036l-0.083,0.036l-0.082,0.036l-0.081,0.037l-0.08,0.037l-0.078,0.037l-0.078,0.038l-0.076,0.037l-0.024,0.013l-0.056,0.029l-1.881,-0.344l0.344,-1.882l0.054,-0.047l0.023,-0.021l0.085,-0.071l0.085,-0.07l0.086,-0.07l0.088,-0.07l0.088,-0.07l0.09,-0.069l0.091,-0.069l0.091,-0.068l0.093,-0.068l0.094,-0.068l0.095,-0.068l0.095,-0.067l0.099,-0.068l0.194,-0.131l0.2,-0.132l0.204,-0.13l0.208,-0.129l0.211,-0.128l0.214,-0.126l0.218,-0.125l0.077,-0.044l0.144,-0.079l0.225,-0.121l0.228,-0.119l0.231,-0.118l0.234,-0.116l0.236,-0.116l0.239,-0.113l0.242,-0.113l0.244,-0.111l0.247,-0.109l0.249,-0.108l0.251,-0.106l0.253,-0.105l0.255,-0.103l0.253,-0.1l0.005,-0.002l0.26,-0.095l0.262,-0.095l0.264,-0.092l0.265,-0.09l0.266,-0.089l0.268,-0.087l0.269,-0.086l0.271,-0.083l0.271,-0.082l0.272,-0.08l0.274,-0.078l0.274,-0.076l0.274,-0.074l0.045,-0.011l0.232,-0.055l0.277,-0.063l0.277,-0.061l0.278,-0.059l0.278,-0.057l0.19,-0.038l0.088,-0.014l0.279,-0.044l0.279,-0.041l0.278,-0.039l0.279,-0.037l0.035,-0.004l0.244,-0.011l0.031,-0.001l0.25,0.013Z" style="fill:#152d53;"/>
                    <path d="M853.61,630.212l0.031,0.002l0.25,0.041l0.28,0.048l0.039,0.007l0.241,0.08l0.278,0.095l0.275,0.097l0.261,0.095l0.01,0.005l0.27,0.138l0.265,0.14l0.223,0.12l0.038,0.024l0.25,0.166l1.522,1.348l-1.515,1.357l-0.235,0.167l-0.034,0.025l-0.194,0.125l-0.228,0.15l-0.228,0.153l-0.009,0.006l-0.219,0.113l-0.229,0.121l-0.228,0.123l-0.197,0.108l-0.032,0.012l-0.231,0.085l-0.206,0.077l-0.026,0.007l-0.21,0.053l-0.025,0.003l-0.208,0.032l-0.031,0.002l-0.241,0.017l-0.242,0.019l-0.243,0.02l-0.244,0.023l-0.076,0.008l-0.169,0.01l-0.246,0.017l-0.247,0.019l-0.248,0.02l-0.247,0.023l-0.208,0.02l-0.04,0.003l-0.25,0.019l-0.249,0.021l-0.249,0.022l-0.249,0.025l-0.248,0.026l-0.248,0.028l-0.247,0.03l-0.246,0.032l-0.246,0.033l-0.245,0.035l-0.243,0.037l-0.242,0.039l-0.241,0.04l-0.004,0.001l-0.237,0.036l-0.239,0.04l-0.237,0.041l-0.235,0.042l-0.234,0.045l-0.231,0.045l-0.23,0.048l-0.227,0.049l-0.224,0.051l-0.222,0.052l-0.22,0.054l-0.216,0.056l-0.214,0.057l-0.21,0.058l-0.135,0.039l-0.073,0.02l-0.205,0.06l-0.201,0.061l-0.198,0.063l-0.194,0.063l-0.191,0.066l-0.186,0.066l-0.185,0.07l-0.087,0.033l-0.089,0.034l-0.088,0.035l-0.086,0.036l-0.086,0.035l-0.084,0.036l-0.083,0.036l-0.082,0.037l-0.081,0.036l-0.08,0.037l-0.078,0.037l-0.078,0.038l-0.076,0.038l-0.024,0.012l-0.056,0.029l-1.881,-0.344l0.344,-1.882l0.054,-0.047l0.023,-0.02l0.085,-0.071l0.085,-0.071l0.086,-0.07l0.088,-0.07l0.088,-0.069l0.09,-0.069l0.091,-0.069l0.091,-0.069l0.093,-0.068l0.094,-0.068l0.095,-0.067l0.095,-0.067l0.099,-0.069l0.194,-0.131l0.2,-0.132l0.204,-0.13l0.208,-0.129l0.211,-0.127l0.214,-0.127l0.218,-0.125l0.077,-0.043l0.144,-0.08l0.225,-0.12l0.228,-0.12l0.231,-0.118l0.234,-0.116l0.236,-0.115l0.239,-0.114l0.242,-0.112l0.244,-0.111l0.247,-0.11l0.249,-0.107l0.251,-0.107l0.253,-0.105l0.255,-0.103l0.253,-0.1l0.005,-0.002l0.26,-0.095l0.262,-0.094l0.264,-0.093l0.265,-0.09l0.266,-0.089l0.268,-0.087l0.269,-0.085l0.271,-0.084l0.271,-0.082l0.272,-0.079l0.274,-0.078l0.274,-0.076l0.274,-0.075l0.045,-0.011l0.232,-0.055l0.277,-0.063l0.277,-0.061l0.278,-0.059l0.278,-0.057l0.19,-0.038l0.088,-0.014l0.279,-0.043l0.279,-0.041l0.278,-0.039l0.279,-0.037l0.035,-0.005l0.244,-0.011l0.031,-0.001l0.25,0.013Z" style="fill:#152d53;"/>
                    <path d="M853.61,643.721l0.031,0.002l0.25,0.041l0.28,0.048l0.039,0.007l0.241,0.081l0.278,0.095l0.275,0.096l0.261,0.095l0.01,0.005l0.27,0.138l0.265,0.14l0.223,0.12l0.038,0.024l0.25,0.166l1.522,1.349l-1.515,1.356l-0.235,0.167l-0.034,0.025l-0.194,0.125l-0.228,0.15l-0.228,0.153l-0.009,0.007l-0.219,0.113l-0.229,0.12l-0.228,0.123l-0.197,0.109l-0.032,0.011l-0.231,0.085l-0.206,0.077l-0.026,0.007l-0.21,0.053l-0.025,0.004l-0.208,0.032l-0.031,0.002l-0.241,0.016l-0.242,0.019l-0.243,0.021l-0.244,0.022l-0.076,0.008l-0.169,0.01l-0.246,0.017l-0.247,0.019l-0.248,0.02l-0.247,0.023l-0.208,0.02l-0.04,0.003l-0.25,0.019l-0.249,0.021l-0.249,0.023l-0.249,0.024l-0.248,0.027l-0.248,0.028l-0.247,0.029l-0.246,0.032l-0.246,0.033l-0.245,0.036l-0.243,0.036l-0.242,0.039l-0.241,0.04l-0.004,0.001l-0.237,0.037l-0.239,0.039l-0.237,0.041l-0.235,0.043l-0.234,0.044l-0.231,0.046l-0.23,0.047l-0.227,0.049l-0.224,0.051l-0.222,0.053l-0.22,0.053l-0.216,0.056l-0.214,0.057l-0.21,0.058l-0.135,0.039l-0.073,0.021l-0.205,0.059l-0.201,0.061l-0.198,0.063l-0.194,0.064l-0.191,0.065l-0.186,0.067l-0.185,0.069l-0.087,0.033l-0.089,0.035l-0.088,0.035l-0.086,0.035l-0.086,0.036l-0.084,0.035l-0.083,0.037l-0.082,0.036l-0.081,0.037l-0.08,0.037l-0.078,0.037l-0.078,0.037l-0.076,0.038l-0.024,0.013l-0.056,0.028l-1.881,-0.344l0.344,-1.881l0.054,-0.047l0.023,-0.021l0.085,-0.071l0.085,-0.07l0.086,-0.071l0.088,-0.069l0.088,-0.07l0.09,-0.069l0.091,-0.069l0.091,-0.068l0.093,-0.069l0.094,-0.067l0.095,-0.068l0.095,-0.067l0.099,-0.068l0.194,-0.132l0.2,-0.131l0.204,-0.131l0.208,-0.128l0.211,-0.128l0.214,-0.127l0.218,-0.125l0.077,-0.043l0.144,-0.079l0.225,-0.121l0.228,-0.119l0.231,-0.118l0.234,-0.117l0.236,-0.115l0.239,-0.114l0.242,-0.112l0.244,-0.111l0.247,-0.109l0.249,-0.108l0.251,-0.107l0.253,-0.104l0.255,-0.104l0.253,-0.099l0.005,-0.002l0.26,-0.096l0.262,-0.094l0.264,-0.092l0.265,-0.091l0.266,-0.089l0.268,-0.087l0.269,-0.085l0.271,-0.084l0.271,-0.081l0.272,-0.08l0.274,-0.078l0.274,-0.076l0.274,-0.074l0.045,-0.012l0.232,-0.055l0.277,-0.063l0.277,-0.061l0.278,-0.059l0.278,-0.057l0.19,-0.037l0.088,-0.015l0.279,-0.043l0.279,-0.041l0.278,-0.039l0.279,-0.037l0.035,-0.004l0.244,-0.011l0.031,-0.002l0.25,0.013Z" style="fill:#152d53;"/>
                </g>
                <g>
                    <path d="M1067.24,616.691l0.244,0.011l0.035,0.004l0.279,0.037l0.278,0.039l0.279,0.041l0.279,0.044l0.088,0.014l0.19,0.038l0.278,0.057l0.278,0.059l0.277,0.061l0.277,0.063l0.232,0.055l0.045,0.011l0.274,0.074l0.274,0.076l0.274,0.078l0.272,0.08l0.271,0.082l0.271,0.083l0.269,0.086l0.268,0.087l0.266,0.089l0.265,0.09l0.264,0.092l0.262,0.095l0.26,0.095l0.005,0.002l0.253,0.1l0.255,0.103l0.253,0.105l0.251,0.106l0.249,0.108l0.247,0.109l0.244,0.111l0.242,0.113l0.239,0.113l0.236,0.116l0.234,0.116l0.231,0.118l0.228,0.119l0.225,0.121l0.144,0.079l0.077,0.044l0.218,0.125l0.214,0.126l0.211,0.128l0.208,0.129l0.204,0.13l0.2,0.132l0.194,0.131l0.099,0.068l0.096,0.067l0.094,0.068l0.094,0.068l0.093,0.068l0.092,0.068l0.09,0.069l0.09,0.069l0.088,0.07l0.088,0.07l0.086,0.07l0.086,0.07l0.084,0.071l0.023,0.021l0.054,0.047l0.345,1.882l-1.882,0.344l-0.056,-0.029l-0.024,-0.013l-0.076,-0.037l-0.078,-0.038l-0.078,-0.037l-0.08,-0.037l-0.081,-0.037l-0.082,-0.036l-0.083,-0.036l-0.084,-0.036l-0.086,-0.036l-0.086,-0.035l-0.088,-0.035l-0.088,-0.035l-0.088,-0.033l-0.185,-0.069l-0.186,-0.067l-0.191,-0.065l-0.194,-0.064l-0.198,-0.062l-0.201,-0.061l-0.205,-0.06l-0.073,-0.02l-0.135,-0.039l-0.21,-0.059l-0.214,-0.057l-0.216,-0.055l-0.22,-0.054l-0.222,-0.052l-0.224,-0.051l-0.227,-0.049l-0.229,-0.048l-0.232,-0.046l-0.233,-0.044l-0.236,-0.043l-0.237,-0.041l-0.239,-0.039l-0.236,-0.037l-0.005,0l-0.241,-0.041l-0.242,-0.038l-0.243,-0.037l-0.245,-0.035l-0.245,-0.033l-0.247,-0.032l-0.247,-0.03l-0.248,-0.028l-0.248,-0.026l-0.249,-0.025l-0.249,-0.023l-0.249,-0.021l-0.249,-0.019l-0.041,-0.002l-0.208,-0.021l-0.247,-0.022l-0.248,-0.021l-0.247,-0.018l-0.246,-0.017l-0.168,-0.011l-0.077,-0.007l-0.244,-0.023l-0.243,-0.02l-0.242,-0.019l-0.241,-0.017l-0.031,-0.002l-0.208,-0.032l-0.025,-0.004l-0.21,-0.053l-0.026,-0.006l-0.206,-0.078l-0.231,-0.085l-0.032,-0.011l-0.197,-0.108l-0.228,-0.124l-0.229,-0.12l-0.219,-0.113l-0.009,-0.006l-0.228,-0.153l-0.228,-0.15l-0.194,-0.125l-0.034,-0.025l-0.235,-0.167l-1.515,-1.357l1.522,-1.349l0.25,-0.165l0.038,-0.024l0.223,-0.121l0.266,-0.139l0.269,-0.138l0.01,-0.006l0.261,-0.094l0.275,-0.097l0.278,-0.095l0.241,-0.08l0.039,-0.007l0.28,-0.049l0.25,-0.041l0.031,-0.001l0.251,-0.013l0.03,0.001Z" style="fill:#152d53;"/>
                    <path d="M1067.24,630.2l0.244,0.011l0.035,0.005l0.279,0.037l0.278,0.039l0.279,0.041l0.279,0.043l0.088,0.014l0.19,0.038l0.278,0.057l0.278,0.059l0.277,0.061l0.277,0.063l0.232,0.055l0.045,0.011l0.274,0.075l0.274,0.076l0.274,0.078l0.272,0.079l0.271,0.082l0.271,0.084l0.269,0.085l0.268,0.087l0.266,0.089l0.265,0.09l0.264,0.093l0.262,0.094l0.26,0.095l0.005,0.002l0.253,0.1l0.255,0.103l0.253,0.105l0.251,0.107l0.249,0.107l0.247,0.11l0.244,0.111l0.242,0.112l0.239,0.114l0.236,0.115l0.234,0.116l0.231,0.118l0.228,0.12l0.225,0.12l0.144,0.08l0.077,0.043l0.218,0.125l0.214,0.127l0.211,0.127l0.208,0.129l0.204,0.13l0.2,0.132l0.194,0.131l0.099,0.069l0.096,0.067l0.094,0.067l0.094,0.068l0.093,0.068l0.092,0.069l0.09,0.069l0.09,0.069l0.088,0.069l0.088,0.07l0.086,0.07l0.086,0.071l0.084,0.071l0.023,0.02l0.054,0.047l0.345,1.882l-1.882,0.344l-0.056,-0.029l-0.024,-0.012l-0.076,-0.038l-0.078,-0.038l-0.078,-0.037l-0.08,-0.037l-0.081,-0.036l-0.082,-0.037l-0.083,-0.036l-0.084,-0.036l-0.086,-0.035l-0.086,-0.036l-0.088,-0.035l-0.088,-0.034l-0.088,-0.033l-0.185,-0.07l-0.186,-0.066l-0.191,-0.066l-0.194,-0.063l-0.198,-0.063l-0.201,-0.061l-0.205,-0.06l-0.073,-0.02l-0.135,-0.039l-0.21,-0.058l-0.214,-0.057l-0.216,-0.056l-0.22,-0.054l-0.222,-0.052l-0.224,-0.051l-0.227,-0.049l-0.229,-0.048l-0.232,-0.045l-0.233,-0.045l-0.236,-0.042l-0.237,-0.041l-0.239,-0.04l-0.236,-0.036l-0.005,-0.001l-0.241,-0.04l-0.242,-0.039l-0.243,-0.037l-0.245,-0.035l-0.245,-0.033l-0.247,-0.032l-0.247,-0.03l-0.248,-0.028l-0.248,-0.026l-0.249,-0.025l-0.249,-0.022l-0.249,-0.021l-0.249,-0.019l-0.041,-0.003l-0.208,-0.02l-0.247,-0.023l-0.248,-0.02l-0.247,-0.019l-0.246,-0.017l-0.168,-0.01l-0.077,-0.008l-0.244,-0.023l-0.243,-0.02l-0.242,-0.019l-0.241,-0.017l-0.031,-0.002l-0.208,-0.032l-0.025,-0.003l-0.21,-0.053l-0.026,-0.007l-0.206,-0.077l-0.231,-0.085l-0.032,-0.012l-0.197,-0.108l-0.228,-0.123l-0.229,-0.121l-0.219,-0.113l-0.009,-0.006l-0.228,-0.153l-0.228,-0.15l-0.194,-0.125l-0.034,-0.025l-0.235,-0.167l-1.515,-1.357l1.522,-1.348l0.25,-0.166l0.038,-0.024l0.223,-0.12l0.266,-0.14l0.269,-0.138l0.01,-0.005l0.261,-0.095l0.275,-0.097l0.278,-0.095l0.241,-0.08l0.039,-0.007l0.28,-0.048l0.25,-0.041l0.031,-0.002l0.251,-0.013l0.03,0.001Z" style="fill:#152d53;"/>
                    <path d="M1067.24,643.71l0.244,0.011l0.035,0.004l0.279,0.037l0.278,0.039l0.279,0.041l0.279,0.043l0.088,0.015l0.19,0.037l0.278,0.057l0.278,0.059l0.277,0.061l0.277,0.063l0.232,0.055l0.045,0.012l0.274,0.074l0.274,0.076l0.274,0.078l0.272,0.08l0.271,0.081l0.271,0.084l0.269,0.085l0.268,0.087l0.266,0.089l0.265,0.091l0.264,0.092l0.262,0.094l0.26,0.096l0.005,0.002l0.253,0.099l0.255,0.104l0.253,0.104l0.251,0.107l0.249,0.108l0.247,0.109l0.244,0.111l0.242,0.112l0.239,0.114l0.236,0.115l0.234,0.117l0.231,0.118l0.228,0.119l0.225,0.121l0.144,0.079l0.077,0.043l0.218,0.125l0.214,0.127l0.211,0.128l0.208,0.128l0.204,0.131l0.2,0.131l0.194,0.132l0.099,0.068l0.096,0.067l0.094,0.068l0.094,0.067l0.093,0.069l0.092,0.068l0.09,0.069l0.09,0.069l0.088,0.07l0.088,0.069l0.086,0.071l0.086,0.07l0.084,0.071l0.023,0.021l0.054,0.047l0.345,1.881l-1.882,0.344l-0.056,-0.028l-0.024,-0.013l-0.076,-0.038l-0.078,-0.037l-0.078,-0.037l-0.08,-0.037l-0.081,-0.037l-0.082,-0.036l-0.083,-0.037l-0.084,-0.035l-0.086,-0.036l-0.086,-0.035l-0.088,-0.035l-0.088,-0.035l-0.088,-0.033l-0.185,-0.069l-0.186,-0.067l-0.191,-0.065l-0.194,-0.064l-0.198,-0.063l-0.201,-0.061l-0.205,-0.059l-0.073,-0.021l-0.135,-0.039l-0.21,-0.058l-0.214,-0.057l-0.216,-0.056l-0.22,-0.053l-0.222,-0.053l-0.224,-0.051l-0.227,-0.049l-0.229,-0.047l-0.232,-0.046l-0.233,-0.044l-0.236,-0.043l-0.237,-0.041l-0.239,-0.039l-0.236,-0.037l-0.005,-0.001l-0.241,-0.04l-0.242,-0.039l-0.243,-0.036l-0.245,-0.036l-0.245,-0.033l-0.247,-0.032l-0.247,-0.029l-0.248,-0.028l-0.248,-0.027l-0.249,-0.024l-0.249,-0.023l-0.249,-0.021l-0.249,-0.019l-0.041,-0.003l-0.208,-0.02l-0.247,-0.023l-0.248,-0.02l-0.247,-0.019l-0.246,-0.017l-0.168,-0.01l-0.077,-0.008l-0.244,-0.022l-0.243,-0.021l-0.242,-0.019l-0.241,-0.016l-0.031,-0.002l-0.208,-0.032l-0.025,-0.004l-0.21,-0.053l-0.026,-0.007l-0.206,-0.077l-0.231,-0.085l-0.032,-0.011l-0.197,-0.109l-0.228,-0.123l-0.229,-0.12l-0.219,-0.113l-0.009,-0.007l-0.228,-0.153l-0.228,-0.15l-0.194,-0.125l-0.034,-0.025l-0.235,-0.167l-1.515,-1.356l1.522,-1.349l0.25,-0.166l0.038,-0.024l0.223,-0.12l0.266,-0.14l0.269,-0.138l0.01,-0.005l0.261,-0.095l0.275,-0.096l0.278,-0.095l0.241,-0.081l0.039,-0.007l0.28,-0.048l0.25,-0.041l0.031,-0.002l0.251,-0.013l0.03,0.002Z" style="fill:#152d53;"/>
                </g>
            </g>
        <g>
            <g id="Table">
                <g serif:id="Table">
                    <rect id="rLeg20" serif:id="rLeg" x="1003.73" y="750.978" width="23.145" height="272.022" style="fill:#374761;stroke:#152d53;stroke-width:6px;"/>
                    <rect id="rLeg21" serif:id="rLeg" x="1601.57" y="750.978" width="23.145" height="272.022" style="fill:#374761;stroke:#152d53;stroke-width:6px;"/>
                    <g>
                        <path d="M1671.57,767.447l-707.428,0l-10,229.31c0,0 28.925,13.893 47.689,13.893c27.452,0 94.608,-9.898 155.338,-11c44.514,-0.808 109.585,11.435 160.687,11c35.06,-0.299 125.882,-10.101 161.173,-11c35.698,-0.91 102.737,14.944 150.253,11c29.777,-2.471 52.288,-13.893 52.288,-13.893l-10,-229.31Z" style="fill:#79aaff;stroke:#152d53;stroke-width:6px;"/>
                        <path d="M1671.57,767.447l-707.428,0l-10,229.31c0,0 28.925,13.893 47.689,13.893c27.452,0 94.608,-9.898 155.338,-11c44.514,-0.808 109.585,11.435 160.687,11c35.06,-0.299 125.882,-10.101 161.173,-11c35.698,-0.91 102.737,14.944 150.253,11c29.777,-2.471 52.288,-13.893 52.288,-13.893l-10,-229.31Z" style="fill:#152d53;fill-opacity:0.2;"/>
                    </g>
                    <path d="M1671.57,767.447l-707.428,0l80,-46.358l547.428,0l80,46.358Z" style="fill:#79aaff;stroke:#152d53;stroke-width:6px;"/>
                    <path d="M1511.57,767.447l-387.428,0l80,-46.358l227.428,0l80,46.358Z" style="fill:#fff;stroke:#152d53;stroke-width:6px;"/>
                </g>
                <path d="M1510.12,767.375l-384.522,0l-3,246.94l390.522,0l-3,-246.94Z" style="fill:#fff;stroke:#152d53;stroke-width:6px;"/>
                <path d="M1510.12,767.375l-384.522,0l-3,246.94l390.522,0l-3,-246.94Z" style="fill:#152d53;fill-opacity:0.2;"/>
            </g>
            <g id="Water-Bottle" serif:id="Water Bottle" class="">
                <g>
                    <path d="M1455.41,679.488c-0.021,-0.714 -1.045,-1.274 -1.882,-1.646c-2.12,-0.944 -7.222,-4.22 -10.835,-4.015c-4.393,0.249 -11.646,3.243 -15.481,3.243c-2.602,0 -5.961,-3.268 -7.53,-3.243c-0.98,0.016 -1.861,0.932 -1.882,1.646c-0.314,10.313 -0.039,64.247 -0.039,64.247c0,4.542 4.218,8.229 9.412,8.229l18.825,0c5.195,0 9.412,-3.687 9.412,-8.229c0,0 0.314,-49.919 0,-60.232Z" style="fill:#64ebff;"/>
                    <path d="M1452.3,653.469c0,-1.039 -0.844,-1.883 -1.883,-1.883l-27.884,0c-1.039,0 -1.882,0.844 -1.882,1.883c-0.437,5.791 -0.799,10.49 -1.118,16.127c-0.922,16.29 -4.351,32.767 -4.125,46.158c0.202,12.054 0.92,22.449 2.243,30.313c0,1.039 0.843,1.882 1.882,1.882l33.884,0c1.039,0 1.883,-0.843 1.883,-1.882c1.596,-7.207 2.384,-17.473 2.523,-30.204c0.142,-13.047 -3.351,-28.683 -4.406,-46.267c-0.312,-5.21 -0.719,-10.592 -1.117,-16.127Z" style="fill:none;stroke:#152d53;stroke-width:6px;"/>
                    <path d="M1452.44,639.232c0,-2.273 -1.845,-4.118 -4.118,-4.118l-23.398,0c-2.273,0 -4.118,1.845 -4.118,4.118l0,11.531c0,0.454 0.369,0.823 0.824,0.823l29.987,0c0.454,0 0.823,-0.369 0.823,-0.823l0,-11.531Z" style="fill:#fff;stroke:#152d53;stroke-width:6px;"/>
                    <path d="M1436.39,635.114c2.323,-16.718 -11.897,-18.05 -14.494,-17.58c-2.597,0.471 -1.086,20.401 -1.086,20.401" style="fill:none;stroke:#152d53;stroke-width:6px;"/>
                </g>
            </g>
            <g id="Bag" class="">
                <path d="M1494.66,750.117c0,-0.047 0,-0.093 0,-0.14c0,-59.585 -5.844,-133.637 -39.12,-132.965l-40.116,0c-31.189,-1.593 -39.12,73.38 -39.12,132.965c0,0.047 0,0.093 0,0.14l118.356,0Z" style="fill:#5f9aff;stroke:#152d53;stroke-width:6px;"/>
                <path d="M1494.66,750.117c0,-0.047 0,-0.093 0,-0.14c0,-59.585 -5.844,-13.637 -39.12,-12.965l-19.279,0l-20.837,0c-31.189,-1.593 -39.12,-46.62 -39.12,12.965c0,0.047 0,0.093 0,0.14l118.356,0Z" style="fill:#152d53;fill-opacity:0.196078;"/>
                <path d="M1455.44,617.012c0.063,3.091 -8.768,5.596 -19.749,5.596c-10.981,0 -19.992,-2.505 -20.15,-5.596l39.899,0Z" style="fill:#5f9aff;stroke:#152d53;stroke-width:6px;"/>
                <path d="M1376.31,750.117c0,0 -21.445,1.86 -20.96,-5.333c1.468,-21.788 19.573,-104.1 29.769,-125.396c4.534,-9.469 31.408,-2.376 31.408,-2.376" style="fill:none;stroke:#152d53;stroke-width:6px;"/>
                <path d="M1496.92,750.117c0,0 21.445,1.86 20.96,-5.333c-1.468,-21.788 -19.573,-104.1 -29.769,-125.396c-4.534,-9.469 -31.408,-2.376 -31.408,-2.376" style="fill:none;stroke:#152d53;stroke-width:6px;"/>
                <g>
                    <path d="M1442.08,666.944l22.151,0l0,6.286l-15.391,0l0,5.762l13.451,0l0,6.286l-13.451,0l0,6.286l15.391,0l0,6.286l-22.151,0l0,-30.906Z" style="fill:#fff;fill-rule:nonzero;"/>
                    <path d="M1442.08,666.944l22.151,0l0,6.286l-15.391,0l0,5.762l13.451,0l0,6.286l-13.451,0l0,6.286l15.391,0l0,6.286l-22.151,0l0,-30.906Z" style="fill:#fff;fill-rule:nonzero;"/>
                    <path d="M1421.99,666.944l6.81,0l0,11.524l13.227,0l0,-11.524l6.81,0l0,30.906l-6.81,0l0,-13.358l-13.227,0l0,13.358l-6.81,0l0,-30.906Z" style="fill:#fff;fill-rule:nonzero;"/>
                    <path d="M1421.99,666.944l6.81,0l0,11.524l13.227,0l0,-11.524l6.81,0l0,30.906l-6.81,0l0,-13.358l-13.227,0l0,13.358l-6.81,0l0,-30.906Z" style="fill:#fff;fill-rule:nonzero;"/>
                    <path d="M1428.8,697.85l-6.81,0l0,-14.668l-12.572,14.668l-9.516,0l14.929,-16.545l-13.751,-14.361l8.906,0l12.004,12.833l0,-12.833l6.81,0l0,30.906Z" style="fill:#fff;fill-rule:nonzero;"/>
                    <path d="M1428.8,697.85l-6.81,0l0,-14.668l-12.572,14.668l-9.516,0l14.929,-16.545l-13.751,-14.361l8.906,0l12.004,12.833l0,-12.833l6.81,0l0,30.906Z" style="fill:#fff;fill-rule:nonzero;"/>
                </g>
            </g>
            <g id="Resume-Stack" serif:id="Resume Stack" class="">
                <path d="M1274.78,750.333l-144.26,0l29.788,-17.262l84.684,0l29.788,17.262Z" style="fill:#fff;stroke:#152d53;stroke-width:4px;"/>
                <path d="M1274.78,742.333l-144.26,0l29.788,-17.262l84.684,0l29.788,17.262Z" style="fill:#fff;stroke:#152d53;stroke-width:4px;"/>
                <path d="M1274.78,734.333l-144.26,0l29.788,-17.262l84.684,0l29.788,17.262Z" style="fill:#fff;stroke:#152d53;stroke-width:4px;"/>
                <path d="M1274.78,726.333l-144.26,0l29.788,-17.262l84.684,0l29.788,17.262Z" style="fill:#fff;stroke:#152d53;stroke-width:4px;"/>
                <path d="M1274.78,718.333l-144.26,0l29.788,-17.262l84.684,0l29.788,17.262Z" style="fill:#fff;stroke:#152d53;stroke-width:4px;"/>
                <path d="M1274.78,710.333l-144.26,0l29.788,-17.262l84.684,0l29.788,17.262Z" style="fill:#fff;stroke:#152d53;stroke-width:4px;"/>
                <path d="M1274.78,702.333l-144.26,0l29.788,-17.262l84.684,0l29.788,17.262Z" style="fill:#fff;stroke:#152d53;stroke-width:4px;"/>
                <path d="M1274.78,694.333l-144.26,0l29.788,-17.262l84.684,0l29.788,17.262Z" style="fill:#fff;stroke:#152d53;stroke-width:4px;"/>
                <path d="M1274.78,686.333l-144.26,0l29.788,-17.262l84.684,0l29.788,17.262Z" style="fill:#fff;stroke:#152d53;stroke-width:4px;"/>
                <path d="M1274.78,678.333l-144.26,0l29.788,-17.262l84.684,0l29.788,17.262Z" style="fill:#fff;stroke:#152d53;stroke-width:6px;"/>
            </g>
        </g>
    </g>
    <g id="TShirt" class="">
        <path d="M662.478,412.057c29.381,-0.067 99.293,35.693 99.293,35.693l-198.585,0c10.478,-3.123 70.439,-35.626 99.292,-35.693Z" style="fill:#a38f75;stroke:#152d53;stroke-width:6px;"/>
        <path d="M661.478,409.434l0,-10.587" style="fill:none;stroke:#152d53;stroke-width:6px;"/>
        <g>
            <path d="M771.843,540.081l-41.683,0l0,127.084l-135.363,0l0,-127.084l-41.683,0l0,-33.417c0.226,-1.518 2.529,-59.793 6.553,-65.32c6.088,-8.361 58.107,-19.438 62.041,-20.333c0.594,-0.515 0.913,-0.786 0.913,-0.786c0,0 15.992,15.863 39.857,16.241c23.866,-0.378 39.858,-16.241 39.858,-16.241c0,0 0.319,0.271 0.913,0.786c3.934,0.895 55.953,11.972 62.041,20.333c4.024,5.527 6.327,63.802 6.553,65.32l0,33.417Z" style="fill:#64ebff;stroke:#152d53;stroke-width:6px;"/>
            <path d="M597.977,494.822l0,41.471l-13.595,0l13.595,-41.471Z" style="fill:#152d53;fill-opacity:0.2;"/>
            <path d="M726.98,494.822l0,41.471l13.595,0l-13.595,-41.471Z" style="fill:#152d53;fill-opacity:0.2;"/>
        </g>
        <path d="M661.478,398.847c6.939,0 12.573,-4.441 12.573,-9.91l0,-14.788c0,-5.469 -5.634,-9.91 -12.573,-9.91c-6.939,0 -10.572,4.441 -10.572,9.91" style="fill:none;stroke:#152d53;stroke-width:6px;"/>
    </g>
    <g id="Website" class="">
        <path d="M2071.52,434.027c0,-5.008 -4.066,-9.074 -9.075,-9.074l-198.115,0c-5.008,0 -9.074,4.066 -9.074,9.074l0,163.35c0,5.008 4.066,9.074 9.074,9.074l198.115,0c5.009,0 9.075,-4.066 9.075,-9.074l0,-163.35Z" style="fill:#fff;stroke:#152d53;stroke-width:6px;"/>
        <path d="M2071.52,434.027c0,-5.008 -4.066,-9.074 -9.075,-9.074l-198.115,0c-5.008,0 -9.074,4.066 -9.074,9.074l0,163.35c0,5.008 4.066,9.074 9.074,9.074l198.115,0c5.009,0 9.075,-4.066 9.075,-9.074l0,-163.35Z" style="fill:#fff;stroke:#152d53;stroke-width:6px;"/>
        <path d="M2071.52,434.027c0,-5.008 -4.066,-9.074 -9.075,-9.074l-198.115,0c-5.008,0 -9.074,4.066 -9.074,9.074l0,163.35c0,5.008 4.066,9.074 9.074,9.074l198.115,0c5.009,0 9.075,-4.066 9.075,-9.074l0,-163.35Z" style="fill:#152d53;fill-opacity:0.2;"/>
        <path d="M2064.2,425.123c4.168,0.819 7.317,4.497 7.317,8.904l0,8.256c0,0.499 -0.405,0.904 -0.903,0.904l-214.458,0c-0.499,0 -0.903,-0.405 -0.903,-0.904l0,-8.256c0,-4.407 3.148,-8.085 7.317,-8.904l201.63,0Z" style="fill:#fff;stroke:#152d53;stroke-width:6px;"/>
        <path d="M1887.31,434.155l-0.321,0" style="fill:none;stroke:#6ec20e;stroke-width:6px;"/>
        <path d="M1877.31,434.155l-0.321,0" style="fill:none;stroke:#c2b30e;stroke-width:6px;"/>
        <path d="M1867.31,434.155l-0.321,0" style="fill:none;stroke:#ff2626;stroke-width:6px;"/>
        <path d="M1971.18,537.382l-7.788,7.938l2.487,-29.618l21.422,20.604l-11.091,-0.82l5.043,13.376l-5.03,1.896l-5.043,-13.376Z" style="fill:#152d53;"/>
    </g>
</svg>